<svg xmlns:xlink="http://www.w3.org/1999/xlink" id="flag-icons-kr" viewBox="0 0 640 480"
    xmlns="http://www.w3.org/2000/svg">
    <defs id="defs87">
        <clipPath id="kr-a">
            <path d="M-95.8-.4h682.7v512H-95.8z" fill-opacity=".7" id="path84" />
        </clipPath>
    </defs>
    <g clip-path="url(#kr-a)" fill-rule="evenodd" id="g119"
        transform="translate(89.8 .4) scale(.9375)">
        <path style="stroke-width:10.0567" d="M-95.8-.4H587v512H-95.8Z" fill="#fff" id="path526" />
        <g id="g540" transform="scale(10.66667) rotate(-56.3 33.9 -9.5)">
            <g id="b2">
                <path d="M-6-26H6v2H-6Zm0 3H6v2H-6Zm0 3H6v2H-6Z" id="b" />
                <use height="100%" id="use529" width="100%" x="0" y="44" xlink:href="#b" />
            </g>
            <path d="M0 17v10" id="path532" stroke="#fff" />
            <path d="M0-12a12 12 0 0 1 0 24Z" fill="#cd2e3a" id="path534" />
            <path d="M0-12a12 12 0 0 0 0 24A6 6 0 0 0 0 0Z" fill="#0047a0" id="path536" />
            <circle cx="0" cy="-6" fill="#cd2e3a" id="circle538" r="6" />
        </g>
        <g id="g546" transform="scale(-10.66667) rotate(56.3 10.9 -33.5)">
            <use height="100%" id="use542" width="100%" x="0" y="0" xlink:href="#b2" />
            <path d="M0-23.5v3M0 17v3.5m0 3v3" id="path544" stroke="#fff" />
        </g>
    </g>
</svg>
