<svg xmlns:xlink="http://www.w3.org/1999/xlink" id="flag-icons-ky" version="1.1"
    viewBox="0 0 640 480" xmlns="http://www.w3.org/2000/svg">
    <path d="M0 0h640v480H0z" fill="#006" id="path6183" />
    <path d="M0 0h320v240H0z" fill="#012169" id="path6350" />
    <path
        d="m37.5 0 122 90.5L281 0h39v31l-120 89.5 120 89V240h-40l-120-89.5L40.5 240H0v-30l119.5-89L0 32V0z"
        fill="#fff" id="path6352" />
    <path
        d="M212 140.5 320 220v20l-135.5-99.5zm-92 10 3 17.5-96 72H0zM320 0v1.5l-124.5 94 1-22L295 0zM0 0l119.5 88h-30L0 21z"
        fill="#c8102e" id="path6354" />
    <path d="M120.5 0v240h80V0zM0 80v80h320V80z" fill="#fff" id="path6356" />
    <path d="M0 96.5v48h320v-48zM136.5 0v240h48V0z" fill="#c8102e" id="path6358" />
    <g id="border" stroke="#fff" stroke-linejoin="round" stroke-width="9.6"
        transform="translate(-306.8 -21.2) scale(.87136)">
        <use height="100%" id="use1093" width="100%" x="0" y="0" xlink:href="#shield" />
        <use height="100%" id="use1095" width="100%" x="0" y="0" xlink:href="#motto1" />
        <use height="100%" id="use1097" width="100%" x="0" y="0" xlink:href="#motto2" />
        <use height="100%" id="use1099" width="100%" x="0" y="0" xlink:href="#rope" />
        <use height="100%" id="use1101" width="100%" x="0" y="0" xlink:href="#turtle" />
        <use height="100%" id="use1103" width="100%" x="0" y="0" xlink:href="#pineapple1" />
        <use height="100%" id="use1105" width="100%" x="0" y="0" xlink:href="#pineapple2" />
    </g>
    <g style="stroke:#000;stroke-width:1.4" id="motto"
        transform="translate(-306.8 -21.2) scale(.87136)">
        <g fill="#fcea83" id="motto1">
            <path
                d="M754.4 449.6c2.9 7.6 23.5 17.7 47.5 4.8 16.3-9.2 26.8-22 36.9-45 2.8-5.8 4.3-13-2.4-17.3-5.3-3.9-14-8.2-17.8-12-1.9-2-3.8-3.4-5.2-4.8 1 1 1.9 1.9 2.8 3.3 9.6 11.5-.4 28.3-11 38.4-7.7 7.2-21.5 24.9-41.7 8.1-4.3-3.8-14.4 12-9 24.5z"
                id="path1108" />
            <path
                d="M1045.8 449.6c-3.4 7.6-24 17.7-47.5 4.8-16.2-9.2-26.8-22-37.3-45-2.4-5.8-3.9-13 2.8-17.3 5.3-3.9 14-8.2 17.8-12 1.9-2 3.3-3.4 5.2-4.8-1 1-1.9 1.9-2.8 3.3-9.6 11.5.4 28.3 10.5 38.4 7.7 7.2 22 24.9 42.2 8.1 4.3-3.8 13.9 12 9 24.5z"
                id="path1110" />
            <path
                d="M900.1 490.8c38.3 0 97.3-17.3 129-77.7 5.2-10 0-15.3-6.3-18.6a73 73 0 0 1-19.2-14c7.7 7.7 6.2 13 1 21.6-24.5 40.8-58 61.4-104.5 61.4s-80-20.6-104.5-61.4c-5.2-8.6-6.7-13.9.5-21.5a66 66 0 0 1-19.2 13.9c-6.2 3.3-11.5 8.6-6.2 18.6 31.6 60.4 91 77.7 129.4 77.7z"
                id="path1112" />
        </g>
        <g fill="#c8102e" id="motto2">
            <path
                d="M811.4 409.8c-1-4.8-7.1-2.9-9 2.9a68.4 68.4 0 0 1-6.8-10.6c-5.7-8.6-6.7-14.4 1.5-22.5 3.8-3.8 11.5-8.2 16.7-3.4 11 9.1 5.3 24-2.4 33.6z"
                id="path1115" />
            <path
                d="M988.3 409.8c1-4.8 7.7-2.9 9.6 2.9 2.4-3.4 4.8-6.7 6.7-10.6 5.7-8.6 6.7-14.4-2-22.5-3.3-3.8-11-8.2-16.7-3.4-10.6 9.1-5.3 24 2.4 33.6z"
                id="path1117" />
            <path
                d="M754.4 449.6c-4.8-7.2-8.6-26-9.6-30.7-1.4-4.3-1.9-8.2 3.4-10 5.3-2 10 4.7 12.4 10.5 2.4 5.7 6.3 14.3 10.6 24.9-10.6-6.2-19.2-2-16.8 5.3z"
                id="path1119" />
            <path
                d="M1045.8 449.6c4.3-7.2 8.1-26 9.6-30.7 1-4.3 1.9-8.2-3.4-10-5.3-2-10 4.7-12.4 10.5-2.4 5.7-6.3 14.3-10.6 24.9 10.6-6.2 18.7-2 16.8 5.3z"
                id="path1121" />
        </g>
        <g fill="#00493d" id="g1176" stroke="none">
            <path
                d="m782.2 406.4-3.8 2c-1 .4-1 1.4-1 1.9h-.5L775 406h.5c0 .4.5 1 1.4.4l8.2-4.3c1-.5 1-1 .5-1.4l.4-.5 2.4 4.8h-.4c-.5-.5-1-1-2-.5l-3.3 2 1.4 2.8 3.9-1.4c1-.5.4-1.5.4-2h.5l2 4.4c-.5-.5-1-1-2-.5l-8.1 4.3c-1 .5-1 1-.5 1.4l-.5.5-2.4-4.3.5-.5c.5.5 1 1 2 .5l3.8-2z"
                id="path1124" />
            <path
                d="M790.4 412.7c1-.5 1-1 .4-2h.5l4.8 7.2-3.3 2.4v-.4c1.9-1.5 1.9-3.4 1.4-3.9s-1-1-1-1.4c-.4 0-.4-.5-1.4.5l-3.4 2.4c.5.4 1 1.9 3.4.4h.5l-5.3 3.9v-.5c2.4-2 1.4-3.4 1-3.8l-3.4 2.4c-1 .4-1 1-1 1.4.5 0 .5.5 1 1 .5 1 2 1.9 4.3 1l.5.4-3.8 1.4-4.8-7.6h.5c.4.4 1 1 1.9.4z"
                id="path1126" />
            <path
                d="m798 430.9-3.3 2.8c-.5.5-.5 1.5 0 2h-.5l-3.4-3.4.5-.5c.5.5 1 1 2 0l6.2-6.2c1-.5 1-1 .4-2l3.4 4c-.5-.6-1.4-.6-2 0l-2.8 2.8 2.4 2.4 2.9-2.4c1-1 .5-1.4 0-2l.5-.4 3.3 3.8h-.5c-.4 0-1-.4-1.9.5l-6.2 5.8c-1 1-1 1.4-.5 1.9v.5l-3.3-3.9c.4 0 1.4.5 1.9 0l3.3-3.3z"
                id="path1128" />
            <path
                d="m805.2 441 1.5 1.4 1.9-4.3s-1.5.4-3.9 1.9l.5 1-.5.4-1-1c-.4.5-.9.5-1.4 1-1.4 1-1 1.5-.4 2v.4l-2.4-2.4h.4l2-.5 9.5-5.2.5.4s-.5.5-4.8 10.1c0 1-.4 1.4 0 2.4l-3.8-3.3.5-.5c.5 1 1.4 1 1.9 0 0-.5.5-1.5.5-2l-1.5-1.4.5-.5z"
                id="path1130" />
            <path
                d="m809 450.5.5-.5c.5.5 1 .5 2 0l6.2-8.1-.5-.5c-1-.5-2.4-.5-3.8 1v-.5l1.9-2.4 7.2 5.3-2.4 2.8h-.5c1.4-1.4 1-3.3 0-3.8v-.5l-6.2 8.2c-1 .5-.5 1.4 0 1.9h-.5z"
                id="path1132" />
            <path
                d="m821.5 452.4-2.4 3.4c-.5 1 0 1.4.5 2l-.5.4-3.8-2.9v-.5c1 .5 1.4.5 1.9-.4l5.3-7.2c.4-1 0-1.5-.5-2l.5-.4 3.8 2.8v.5c-1-.5-1.4-.5-2 .5L822 452l2.9 1.9 2.4-3.4c.4-1 0-1.4-.5-1.9l.5-.5 3.8 2.9v.5c-.5-.5-1.4-.5-2 .5l-4.7 7.6c-1 .5-.5 1 0 1.5v.4l-4.3-2.8h.5c.4 0 1 0 1.4-.5l2.4-3.8z"
                id="path1134" />
            <path
                d="m831.1 465.9.5-.5c.5.5 1.4.5 1.9-.5l3.8-8.1c.5-1 0-1.5-.5-2l8.2 3.9-2 3.8-.4-.5c1.4-1.9 0-3.8-.5-4.3-.5 0-1-.5-1.4-.5-.5 0-.5 0-1 1-.5.5-1.9 3.3-1.9 3.3.5.5 1.4 1.5 3.4-1h.4l-2.8 5.8-.5-.4c1.4-3-.5-3.4-1-3.4l-1.9 3.8c-.5 1 0 1.5.5 1.5v.5z"
                id="path1136" />
            <path
                d="M845 472.6c-1.4-1-1.4-3.9 0-6.7 1-3 2.9-5.3 4.8-4.4 1.4.5 1 3.4 0 6.3-1.5 3.3-3.4 5.2-4.8 4.8h-.5c3.4 1.4 5.8-.5 7.2-3.9 1.4-2.8 1-6.2-2-7.6-2.8-1.5-5.7.4-7.1 3.8-1.4 3.4-1 6.7 2 7.7z"
                id="path1138" />
            <path
                d="m859.8 473.5 2-5.7c.4-1 0-1.5-.5-2l2.4.5v.5c-.5 0-1 0-1.5 1l-1.9 5.7c-1 2.4-2.4 4.3-5.2 3.4-2-.5-3.4-2.9-2.4-5.3l2.4-6.2c.4-1 0-1.5-.5-2v-.4l4.3 1.9v.5c-.5-.5-1.4-.5-1.4.5L855 472c-.5 1.9-.5 3.8 1 4.3 1.4.5 2.8-.5 3.7-2.9z"
                id="path1140" />
            <path
                d="M864.2 467.3c0-.5 0-.5-.5-.5l3.3.5 3 9.1 1.4-5.8c.4-1 0-1.4-.5-1.9l2.8.5-.4.5c-.5 0-1 0-1.5 1l-2.4 10.5h-.4l-3.9-11.5-2.4 7.7c0 1.4.5 1.4 1 1.9v.5l-2.9-1v-.5c.5.5 1.4 0 1.4-1l2.4-8.6z"
                id="path1142" />
            <path
                d="M880.5 476.9c-1 4.3-3 5.3-3.9 5.3h-1s-.4-.5 0-1l1.5-9.6c.5-.5.5-1 1-.5h1c.9 0 1.8 2 1.4 5.8l1.4.5c1-4.8-1-6.8-3.4-7.2-1.9-.5-4.8-1-4.8-1v.5c.5.5 1.5.5 1 2l-1.4 8.5c-.5 1-1 1.5-1.5 1.5h-.4l4.7 1c2.4.4 4.8 0 5.8-5.3z"
                id="path1144" />
            <path
                d="M884.8 473c0-1-1-1.4-1.5-1.4v-.5l8.7 1-.5 3.8c0-2.4-1.5-3.3-2.4-3.3-.5-.5-1-.5-1.5-.5-.4 0-.4 0-.4 1.4l-.5 3.9c.5 0 1.9.4 2.9-2.4l-.5 6.2h-.5c0-2.9-1.4-2.9-2-2.9l-.4 4.3c0 1 0 1 .5 1l1 .5c1.4 0 2.8-.5 3.8-3.4h.5l-1 3.8-9.1-1c1 0 1.4-.4 2-1.3z"
                id="path1146" />
            <path
                d="M900.6 478.8c0 4.3-1.5 5.7-2.9 5.7-.5-.4-.5-.4-1-.4l-.4-.5.5-10c0-.6 0-.6.4-.6h1c1 0 2.4 1.5 2.4 5.8h1.9c0-4.8-2.4-6.2-4.8-6.2-2-.5-4.8-.5-4.8-.5v.5c.5 0 1.5.4 1.5 1.4l-.5 9.1c0 1-.5 1.4-1 1.4v.5h4.3c2.4 0 4.8-1 5.3-6.2h-2z"
                id="path1148" />
            <path
                d="M914.5 482.6c0 1 .5 1 1.4 1v.5l-5.3.4c.5-.4 1.5-1 1.5-1.9l-1-9c-.5-1-1-1-1.9-1v-.5l5.3-.5c-.5.5-1.5 1-1 2z"
                id="path1150" />
            <path
                d="M919.3 483.6v-.5c.5 0 1-.5 1-1.4l-2-10h-.5c-1 .4-1.9 1.3-1.4 3.3h-.5l-.5-3.4 8.7-1.4.4 3.3h-.4c0-1.9-1.5-2.4-3-2.4h-.4l2 10c0 1 .4 1.5 1.4 1.5v.5z"
                id="path1152" />
            <path
                d="m939.9 474-2-5.7c0-1-.9-1-1.4-1v-.5l2.4-1v.5c-.5.5-.5.5-.5 1.5l2 6.2c.4 2 .4 4.8-2.4 5.8-2 .4-4.3-.5-4.8-3.4l-2-6.2c-.4-1-.9-1-1.4-1l-.5-.5 4.8-1.4v.5c-.4.5-1 1-.4 1.9l1.4 6.2c.5 2 2 2.9 3.3 2.9 1.5-.5 2-2.4 1.5-4.8z"
                id="path1154" />
            <path
                d="M945.2 470.6c2.3-1 1.9-2.3 1.4-3.8-.5-1.4-1.4-2.4-2.4-1.9-.5 0-1 .5-.5 1l1.5 4.7.4.5 1 3.9c.5 1 1.4 1 2 .4v.5l-4.4 2-.5-.5c1-.5 1-1 1-2l-3.4-8.1c-.5-1.4-1-1-1.9-1v-.4l4.8-2c2-.4 3.8 0 4.8 2 .5 2.4-.5 3.8-2.4 4.8-.5 0-1 .4-1 .4z"
                id="path1156" />
            <path
                d="M957.1 472c-1.4.6-3.3-1.4-4.8-4.7-1.4-2.9-1.4-5.8 0-6.2 1.5-.5 3.4 1.4 4.8 4.3 1.5 2.9 1.5 5.7 0 6.7 3-1 3.9-4.3 2.4-7.7-1.4-2.9-4.3-4.8-7.2-3.8a5.6 5.6 0 0 0-2.4 7.7c1.5 3.3 4.4 5.2 7.2 3.8z"
                id="path1158" />
            <path
                d="M957.6 458.7h-.9l2.8-2 8.7 4.8-3-5.2c-.4-1-1.4-1-1.8-1v-.5l2.4-1c-.5.6-1 1 0 2l4.8 9.6-.5.5-10.6-5.8 3.9 7.2c.4 1 1.4 1 1.9.5v.5l-2.4 1.4v-.5c.5-.5.5-1 0-1.9l-3.8-7.7-1.5-1z"
                id="path1160" />
            <path
                d="M979.2 460.1v-.5c0-.5.5-1 0-1.9l-5.8-8.1h-.5c-1 .4-1.4 2.4 0 3.8l-.4.5-2-3.4 7.2-4.8 2 3c-1.5-1.5-3-1.5-3.9-1l-.5.4 5.8 8.2c.5 1 1.4 1 2 .5v.4z"
                id="path1162" />
            <path
                d="m984.5 448.6 2.8 3.4c.5.4 1.5.4 2 0v.4l-3.9 3.4v-.5c.5-.5.5-1 0-1.9l-5.7-7.2c-.5-1-1-.5-2-.5l3.9-3.3v.5c0 .4-.5 1 0 1.9l2.4 2.8 2.8-1.9-2.3-3.3c-.5-1-1.5-.5-2-.5l3.9-3.4v.5c-.5.5-.5 1 0 2l5.7 7.1c.5.5 1 .5 1.5 0l.4.5-3.8 3.4-.5-.5c.5-.5 1-1 .5-2l-2.9-3.3z"
                id="path1164" />
            <path
                d="M988.8 438.5c-.5-.4-1.5-.4-2 0v-.4l6.3-5.8 2.9 2.9h-.5c-1.5-2-3.4-1-4.3-.5 0 .5-.5.5-1 1 0 0 0 .4.5 1.4l2.9 2.9c.4-.5 1.9-1.5 0-3.9h.4l3.9 4.4v.4c-2.4-2.4-3.4-1-3.9-.4l3 2.8c.4 1 .9 1 .9 1l1.4-1.4c.5-.5 1-2 0-4.8h.5l1.9 3.3-6.2 6.2-.5-.4c.5-.5 1-1 0-2z"
                id="path1166" />
            <path
                d="M1000.3 425.1c-.5.5-.5 1.5.4 2 1 .9 2 .9 3.9 0 1-.5 2.8-1 4.3.4 2.4 2.4 1.4 4.3 1 5.3-.5.5-1.5 1-2 1.4-.5 0-.5 0-.5.5v.5l-3.3-2.9h.5c1.9 1 3.8 1.4 4.8 0 1-1 0-2-.5-2.4-1-1-2-1-3.4 0-1.4.5-3.3.5-4.8-.5-1.9-1.9-1.9-3.3-1-4.8l2-1.4c.5 0 .5 0 0-1l3.4 2.4h-.5c-2.4-1-3.9-.4-4.3.5z"
                id="path1168" />
            <path
                d="M1004.6 421.3c-1-.5-1.5 0-2 .5h-.4l5.3-7.7 3.3 2.4-.5.5a3.3 3.3 0 0 0-4.3 0c0 .5-.5 1-.5 1.4-.4 0-.4.5.5 1 .5.5 3.4 2.4 3.4 2.4.5-.5 1.4-1.5-.5-3.4v-.5l4.8 3.9c-2.9-1.5-3.4 0-3.8.4l3.3 2.4c1 .5 1.4.5 1.4.5 0-.5.5-1 1-1.4.5-1 1-2.4-1-4.3l.5-.5 2.4 2.9-4.8 7.2h-.5c.5-1 .5-1.5-.4-2.4z"
                id="path1170" />
            <path
                d="m1017.5 412.7-1.4 2.4c-2-2-2.9-3.4-2.9-3.4l4.3 1h1c.5 0 1.4.4 1.9.4 1.4.5 1 1 .5 2h.5l2.4-4.4c-1 1-1.5.5-2.4.5-10.1-1.9-11-2.4-11-2.4v.5l7.6 8.6c.5.5.5 1.5.5 2h.5l1.4-2.4-.5-.5c-.5 1-1 1.4-1.9 0l-1-1 1.5-3.3z"
                id="path1172" />
            <path
                d="M1014.6 402.1c-.4.5-.4 1.5 1 2 1.4.4 2 0 3.4-1s2.8-2 4.7-1c3 1.5 2.4 3.9 2 4.8l-1.5 2v.9l-3.8-2c2.4.5 4.3 0 4.8-1.4.5-1-.5-1.9-1-2.4-1-.4-1.9 0-3.3 1-1.5 1.4-3 2-4.8 1-2-1-2.9-2.4-2-3.9 0-1 1-1.4 1.5-1.9 0-.5 0-.5-.5-1v-.4l3.9 1.9h-.5c-2.4-.5-3.9.5-3.9 1.4z"
                id="path1174" />
        </g>
    </g>
    <g style="stroke:#000;stroke-width:1.4" id="crest"
        transform="translate(-306.8 -21.2) scale(.87136)">
        <g fill="#073163" id="rope">
            <path
                d="M863.2 232.5c-6.2 1.4-10.5 1.9-16.3-3.4-3.8-3.8-2.9-10.5 1-13 4.3-2.8 8.1-4.7 13.4-3.3 5.3 1.5 19.2 14.4 15.8 14.9-3.4 0-8.6 3.3-13.9 4.8z"
                fill="#fff" id="path1179" />
            <path
                d="M878 209.5c2-1.5 4.4-2.4 10.6-3 5.8-.4 10-.4 11.5 4 2 5.2 3.4 11.4 7.2 14.3-2.4 1.4-14.4 2.9-18.7.5-5.7-2.9-7.2-14-10.5-15.8z"
                fill="#fff" id="path1181" />
            <path
                d="M919.3 210c1.9-1.5 4.3-1.5 10.5-1s8.6 1 10 5.3c1.5 4.8 0 11 3 15.3-3 1-12.5 1-15.9-2.4-5.2-3.8-4.8-14.9-7.6-17.3z"
                fill="#fff" id="path1183" />
            <path
                d="M948 212.8c-4.3-1-7.2-1.4-9 0 2.3 2.9.4 14.4 5.2 18.2 3.3 2.4 12 3 13.9-2.4 2.4-4.8 2.4-12-10-15.8z"
                id="path1185" />
            <path
                d="M898.7 208c1.4-1.4 4.3-1.9 10-1.9 6.3 0 10 1 12 4.8 2 4.8 1.4 11 4.8 14.9-1.4 1.9-14.4 1.9-18.2-1-5.3-3.4-5.8-14.4-8.6-16.8z"
                id="path1187" />
            <path
                d="M858 212.3c0-2.4 3.3-2.8 12-3.3 8.5-1 9-.5 11.9 5.7 1.4 3.4 3.3 9.1 7.2 11-10.6 2.5-14 3.9-19.7.5a29.2 29.2 0 0 1-10-10.5c-.5-1.4-.5-2.9-1.5-3.4z"
                id="path1189" />
        </g>
        <g fill="#f9d050" id="g1268" stroke-width=".6">
            <g id="pineapple1">
                <path d="M881 163.5c-10.1-7.7-22.1-14.9-33.1-16.3a280 280 0 0 1 32.6 25.4"
                    id="path1192" />
                <path d="M886.7 156.3c-12-8.2-25.9-17.3-39.3-18.2a124 124 0 0 1 33 27.8"
                    id="path1194" />
                <path d="M902 142.9a93 93 0 0 1 23.5-32.2c-4.8 10.1-10 30.7-12.5 38.9"
                    id="path1196" />
                <path d="M912.6 140.5A48.4 48.4 0 0 1 937 115a101.2 101.2 0 0 0-18.2 35"
                    id="path1198" />
                <path d="M916.9 150a84.5 84.5 0 0 1 37.8-31.6c-12 12-29.7 34-34 42.7"
                    id="path1200" />
                <path d="M923.6 160.6c8.6-4.8 25.9-12.5 38.3-10-7.6 2.8-30.6 13.3-40.7 23"
                    id="path1202" />
                <path d="M921.7 157.2c8.1-8.6 23-21.5 38.8-26.8-11.5 11-36 36-39.3 39.8"
                    id="path1204" />
                <path d="M898.7 152c-5.8-17.8-14.4-34.5-27.3-39.8a130.9 130.9 0 0 1 21 48.9"
                    id="path1206" />
                <path d="M887.6 151.5c-9.5-11.5-22.5-23-37.3-25.4a90.1 90.1 0 0 1 33 38.8"
                    id="path1208" />
                <path d="M893 151c-12-21.6-21.2-25.4-26.4-29.7 4.3 8.1 14.8 29.7 21 38.8"
                    id="path1210" />
                <path d="M869 149.6a57.7 57.7 0 0 1 17.2 16.7" fill="none" id="path1212" />
                <path d="M869 159.6c2.8 2.4 8.1 5.3 12.9 9.6" id="path1214" />
                <path d="M926 166.8c4.8-3.8 15.3-10 20.6-12" id="path1216" />
                <path d="M922.6 163.5c4.8-6.3 14.4-14.9 17.8-17.8" id="path1218" />
                <path d="M936 133.7a286.9 286.9 0 0 0-18.2 22.6" id="path1220" />
                <path d="M923.6 129.4a157 157 0 0 0-12 21.1" id="path1222" />
                <path d="M885.7 130.4c2.9 7.7 8.2 20.6 10 25.9" id="path1224" />
                <path d="M881.4 138.5c2 3 5.8 9.6 7.2 14.4" id="path1226" />
            </g>
            <g id="pineapple2">
                <path
                    d="M897.7 136.1c0-4.3 2.9-9 5.8-9 3.3 0 5.7 5.7 5.7 9 0 3.9-2.9 7.2-5.7 7.2-3 0-5.8-2.8-5.8-7.2z"
                    id="path1229" />
                <path
                    d="M891.5 140c.5-4.8 3.8-8.6 6.7-8.2 2.9.5 4.3 6.3 3.8 9.6-.5 3.8-3.8 6.7-6.2 6.2-2.4 0-4.8-3.3-4.3-7.6z"
                    id="path1231" />
                <path
                    d="M904.4 141.4c-1-4.3 1-9 3.9-9.6 2.8-.4 5.7 4.3 6.2 8.2 1 3.8-1.5 7.6-3.9 7.6-2.3.5-5.7-1.9-6.2-6.2z"
                    id="path1233" />
                <path
                    d="M897.2 145.2c0-4.7 2.9-9 5.8-9 3.3 0 5.7 5.2 5.7 9 0 3.9-2.8 7.2-5.7 7.2-2.9 0-5.8-2.8-5.8-7.2z"
                    id="path1235" />
                <path
                    d="M888.6 147.6c0-4.3 3.4-9 6.2-9 3 0 5.8 5.7 5.8 9 0 3.9-3.4 7.2-5.8 7.2-2.8 0-6.2-2.8-6.2-7.2z"
                    id="path1237" />
                <path
                    d="M906.3 145.7c0-4.3 3-9 5.8-9 3.3 0 5.7 5.7 5.7 9 0 3.9-2.8 7.2-5.7 7.2-2.9 0-5.8-2.9-5.8-7.2z"
                    id="path1239" />
                <path
                    d="M904.4 149.6c0-4.8 3.4-9.1 6.2-9.1 3 0 5.8 5.2 5.8 9 0 3.9-2.9 7.3-5.8 7.3-2.8 0-6.2-3-6.2-7.2z"
                    id="path1241" />
                <path
                    d="M896.8 153.9c0-4.8 2.8-9.1 5.7-9.1 3.4 0 5.8 5.7 5.8 9 0 4-3 7.3-5.8 7.3-2.9 0-5.8-3-5.8-7.2z"
                    id="path1243" />
                <path
                    d="M884.8 153.9c0-4.8 2.4-9.1 4.8-9.1s4.3 5.7 4.3 9c0 4-2.4 7.3-4.3 7.3-2.4 0-4.8-3-4.8-7.2z"
                    id="path1245" />
                <path
                    d="M911.6 153c0-4.4 2.4-8.7 4.8-8.7s4.8 5.3 4.8 8.6c0 4.3-2.9 7.2-4.8 7.2-2.4 0-4.8-2.9-4.8-7.2z"
                    id="path1247" />
                <path
                    d="M914.5 161c1-4.7 3.8-8.6 5.7-8 2 .4 2.4 6.1 1.5 9.5-.5 4.3-3.4 6.7-5.3 6.2-2-.4-2.9-3.8-2-7.6z"
                    id="path1249" />
                <path
                    d="M905.4 159.6c.5-4.3 3.3-8.6 5.7-8.1 2.9 0 4.3 5.7 3.9 9-.5 4.4-3 7.3-5.3 6.8-2.4 0-4.8-3.4-4.3-7.7z"
                    id="path1251" />
                <path
                    d="M892 161c-1.5-4.7-4.4-8-6.3-7.6-1.9.5-2.4 6.2-1.4 9.6 1 3.8 3.8 6.2 5.7 5.7 1.5-.4 3-3.8 2-7.6z"
                    id="path1253" />
                <path
                    d="M888.6 160.1c0-4.3 2.4-8.6 4.8-8.6 2.9 0 4.8 5.3 4.8 8.6 0 4.3-2.4 7.2-4.8 7.2-2 0-4.8-2.9-4.8-7.2z"
                    id="path1255" />
                <path
                    d="M895.8 162c0-4.8 2.9-9 5.7-9 3.4 0 5.8 5.2 5.8 9 0 3.9-2.9 7.2-5.8 7.2-2.8 0-5.7-2.9-5.7-7.2z"
                    id="path1257" />
                <path
                    d="M898.2 109.3c-1 3.8-4.3 7.2-2 12.5-4.2-1.5-8-2-11.4 1.9 4.3-.5 8.1 1 10 3.8-3.8-.5-5.7 1.5-6.7 3.9 3.4-1 6.7-2 8.2-1.5-1.5 1.5-3.9 3.8-4.3 5.8 2.8-2.4 6.2-2 8.1-3.4-1.4 3.4 1.4 6.7 3.8 10-.4-4.7 2.4-8 1-10.5 4.3 1 4.8 4.8 11 4.8-2.4-1.4-3.8-6.2-6.7-6.2 1.4-.5 7.2-1 8.2 0-1-2-4.4-3.8-6.3-3.8 2-2 5.3-5.8 7.7-6.8-3.4.5-8.6 1-10.5 3.9 4.7-3.9 3.8-11 9-12-2.8-.5-7.1 1.4-10.5 4.8 1.5-2.9 1.5-6.7 3.4-7.7-3.9 1-8.2 5.8-9.6 8.2a18 18 0 0 0-2.4-7.7z"
                    id="path1259" />
                <path d="M900.6 117c0 1.4 0 4.3-.5 5.2" id="path1261" />
                <path d="M906.8 116.5c-1 1-2.9 4.3-2.9 7.2" id="path1263" />
                <path d="M909.7 122.2a7.6 7.6 0 0 0-3.4 4.4" fill="none" id="path1265" />
            </g>
        </g>
        <g fill="#059334" id="turtle">
            <path
                d="M858.9 169.7c-3.4 0-6.2-1.4-8.2-3.8-3.3-4.4-12.4-6.3-16.3-2.4-1.4 1-3.3 1-4.7 1.4-2.4 0-5.3 2.4-4.4 7.2 2-1.5 2.4 0 3.9 0 1-.5.5.5.5 1.4 0 2.4 5.2 7.2 10 6.7 5.3 0 7.7 2 8.6 3 1.5 1.3.5.9 1.5 3.3 1.4 1.4 1.9 1.9-.5 3.8a9.7 9.7 0 0 0 0 14.9c6.2 4.7 22 12 39.8-2 17.2-13.4 44-5.7 46-1 2.4 4.9 3.3 7.7 3.8 10.1.5 2 2.9 3.9 6.3 3.4 3.3 0 7.1 1.4 9 2.9 2.5 1.4 5.8 1 4.9-3.4-2-13.4-10.1-15.3-11-21.5 4.7.4 8 .4 10-1.5 1.4-1.9 3.3-5.3 5.3-6.2 1.4-1 1.4-2-.5-1.5-2.4.5-3.8 1.5-8.2 1-22-2.4-83.8-19.2-95.8-15.8z"
                id="path1270" />
            <path
                d="M956.7 186a34.8 34.8 0 0 0-9.2 9.6c-4.7 6.2-19.1 12.4-36.9 12.4-17.2 0-27.7-2.8-35.4-9a60.6 60.6 0 0 0-10.6-6.8c-5.2-2.4-6.2-7.7-4.8-12-1.4 2.4-2.3 4.8-5.2 4.3-2 0-5.8 0-4.8 2-.5-1-.5-2.4-1-3l-1-.9c1.5 1 4.9-1.9 7.3-1.9 1.9.5 4.3-1.9 3.8-4.8l-1.4-6.2c3.8-2 54.1 7.2 64.2 8.1 10 .5 38.8 4.8 35 8.2z"
                fill="#000" id="path1272" />
            <path
                d="M865.6 167.8c4.8-4.8 10.5-7.2 16.3-5.8h1.4c3-2.4 9.6-2.9 13.5-1h1.9c5.7-1.9 16.7 0 20.6 3.9l1.4 1c13-1 20.6 4.7 29.7 13.9 1 1 2.4 2.8 4.8 3.3 2.9.5 3.4 2 1 3.4a37.8 37.8 0 0 0-10 9c-4.4 5.8-18.3 11.6-35.6 11.6-16.7 0-26.8-3-34.5-8.7-4.3-3.3-7.6-5.2-10-6.7-2.9-1-6.7-4.8-5.3-8.6 1-3.8-1.4-8.6-3.3-13.4 1.4-1 5.2-2.4 7.1-1.4z"
                id="path1274" />
            <g fill="#00493d" id="g1292">
                <path
                    d="M950.4 179.8c-9-9.2-16.7-14.9-29.7-14 0 .5 0 2-.5 3a66.3 66.3 0 0 1 23.5 17.7c2-2 5.3-4.3 6.7-6.7z"
                    id="path1276" />
                <path
                    d="M919.3 164.9c-3.9-3.8-14.9-5.8-20.6-3.8 0 1.9 0 4.8-1 6.7 3.4 1.4 6.2 4.8 9.1 8.1 2-.5 6.7-1.9 9.1-2.4a44 44 0 0 0 3.4-8.6z"
                    id="path1278" />
                <path
                    d="M896.8 161c-3.9-1.9-10.6-1.4-13.5 1-1 2-1.4 5.8-1.4 7.7 2 0 4.8 1.4 5.7 2.4 3-1 6.8-2.9 8.2-4.3.5-2 1.4-4.8 1-6.7z"
                    id="path1280" />
                <path
                    d="M865.6 167.8c4.8-4.8 10.5-7.2 16.3-5.8-1 1.5-1.4 4.3-1.4 7.2-5.3-.5-12 1-14.9 2.9z"
                    id="path1282" />
                <path
                    d="M941.8 187.4a64.2 64.2 0 0 0-22-16.8c0 .5-1 2.4-1.5 3.9 2.9 4.3 8.6 13.9 11 19.2 2.4-1 9.1-3.9 12.5-6.3z"
                    id="path1284" />
                <path
                    d="M905.4 198a179 179 0 0 0 1.4-19.7c2.4-.5 7.2-1.9 9.1-2.4 2.4 3.9 8.2 14 10.6 18.7-5.8 1.4-15.4 3.8-21.1 3.4z"
                    id="path1286" />
                <path
                    d="M888.6 175c2.4-1 5.8-3 8.1-4.8 2 1.4 5.8 4.8 7.2 6.7 0 4.3-1.4 16.8-1.9 21-3.8 0-10-.9-13.4-2.8.5-7.2 1-15.3 0-20.1z"
                    id="path1288" />
                <path
                    d="M864.6 180.7c.5-1 1-4.3 1-5.7 3.8-2.4 13.4-4.8 20.6-1 .5 4.8 0 16.8-.5 19.7a96.4 96.4 0 0 0-21-13z"
                    id="path1290" />
            </g>
            <g fill="none" id="g1308">
                <path
                    d="M840.7 172c-1 0-1.5-2.8-3.4-2.8-.5 0-1.9.5-2.4 0 0 1 .5 2 1 2.4.5 1.4 2.9.5 4.8.5z"
                    fill="#000" id="path1294" stroke="none" />
                <path d="M840.7 180.2c5.7 0 6.7-7.2 9.6-7.6" id="path1296" />
                <path d="M844 180.7c4.3 2 7.7-8.1 11-7.7" id="path1298" />
                <path d="M835.4 168.3c1.4 0 2.4-2 4.8.4 1 1 2.4 1.5 3.4 1.5" id="path1300" />
                <path d="M842.6 175.4c-2 3-5.3 4.8-7.2 3.9" id="path1302" />
                <path d="M834.4 163.5c-1.4 1-2.3 2.8-3.3 4.3" id="path1304" />
                <path d="M829.7 170.6v2.4" id="path1306" />
            </g>
        </g>
    </g>
    <g style="stroke-width:1.4" id="g1475" stroke="none"
        transform="translate(-306.8 -21.2) scale(.87136)">
        <path d="M989.7 233v93.4c0 81-38.3 108.8-89.6 130.8-51.3-22-90-49.8-90-130.8v-93.5h179.6z"
            fill="#fff" id="shield" />
        <path
            d="M900.1 312c4.3 0 11-3.8 16.8-9.6 6.2-6.7 16.8-9 27.8 0 11 9.1 17.7 5.3 23.5 0 5.7-5.2 10.5-7.2 21.5-7.2V233H810v62.3c11 0 15.8 2 21.6 7.2 5.7 5.3 12.4 9.1 23.5 0 11.5-9 21.5-6.7 28.2 0 5.3 5.8 12 9.6 16.8 9.6z"
            fill="#c8102e" id="path1313" />
        <g fill="#0b50a0" id="g1321">
            <path
                d="M900.1 360c5.8 0 17.3-6.3 20.1-7.7 10.6-6.3 18.2-.5 24.5 2.4 6.7 2.8 19.1 6.2 26.8 0 7.7-6.3 12-5.8 17.3-5.8 1-7.2 1-14.4 1-22.5v-5.8c-6.8-1.4-10.1.5-17.3 6.8-7.2 6.2-15.4 4.8-26 1-10-4.4-20-12-30.1 0a24.2 24.2 0 0 1-16.3 8c-7.2 0-13.4-4.7-16.3-8-10.5-12-20.1-4.4-30.2 0-10.5 3.8-19.2 5.2-26.3-1-6.7-6.3-10.1-8.2-17.3-6.8v5.8c0 8.1.5 15.3 1.4 22.5 5.3 0 9.2-.5 16.8 5.8 7.7 6.2 20.6 2.8 26.9 0 6.7-2.9 14.3-8.7 24.9-2.4 2.9 1.4 13.9 7.6 20.1 7.6z"
                id="path1315" />
            <path
                d="M900.1 380.6a51 51 0 0 0 23.5-7.2c9.6-5.3 16.3-3 25.9 1.9 10 4.8 18.2 3.3 24 0 2.8-2 5.2-5.8 11.4-4.3-2.8 12-7.2 22.5-12.4 31.1a32.5 32.5 0 0 1-25-1.9c-10-4.8-22.5-7.7-29.2-3.4a36 36 0 0 1-18.2 5.8c-5.3 0-12-2-18.2-5.8-6.7-4.3-19.2-1.4-29.2 3.4a32.5 32.5 0 0 1-25 2c-5.2-8.7-9.5-19.3-12.4-31.2 6.2-1.5 8.6 2.4 11.5 4.3a23.9 23.9 0 0 0 23.5 0c10-4.8 16.7-7.2 26.3-2a51 51 0 0 0 23.5 7.3z"
                id="path1317" />
            <path
                d="M900.1 457.2a191.9 191.9 0 0 0 51.3-29.7c-3.9-1.4-6.2-.5-9.6-2.9-3.4-2.4-13.4-3.3-22 1.5a39 39 0 0 1-39.3 0c-8.7-4.8-18.7-3.9-22-1.5-3.4 2.4-5.8 1.5-9.7 3a184.7 184.7 0 0 0 51.3 29.6z"
                id="path1319" />
        </g>
        <g id="lion" stroke="#000" stroke-width="1.4">
            <path
                d="M887.6 256.4c.5 1-.4 3.4 0 4.3 1 2 1 3 2.4 3.9h3.4c10.5 0 23-4.3 33.5-4.3 10.1 0 16.3 3.3 22 3.3 3.4 0 6.3-2.4 6.3-4.8s-3.8-3.8-12-3.8c-11.5 0-17.7 2.9-27.3 2.9-14.4 0-16.8-5.3-16.8-7.7 0-2.4 2.4-5.7 10.1-5.7 2.4 0 4.3-.5 5.3-1.5.5-1 1.9-2.9 4.8-4.3 3.3-2 10 0 13.4-2.4 0 2-2.9 4.8-5.3 5.8 4.8-1.5 10-1.5 11 2.4-2.4-1.5-6.2-.5-7.6 0-2 .4-2.9 1-4.8 1.4 1.9-.5 2.9 3.3 5.7 3.3-2.8 2.4-7.6 2.4-12.4.5-1.5-.5-5.3-1.9-7.7-1.9-4.8 0-7.7 1-7.7 2.9 0 2.4 3 3.8 11.5 3.8 8.7 0 13.5-2.4 26.4-2.4-1-1.4.5-2.9-1.4-4.3 4.8 0 10 1.4 12 4.8-.5-3.4 2.3-6.2 1.4-9.1 2.9.5 5.3 3.3 5.7 5.7 0-1.4 2-1.4 2-2.8a7.4 7.4 0 0 1 3.8 7.6c1.4-2.4 2.9-1.4 3.8-4.3 1 2 .5 7.7-2.9 9.6 3-2 7.2-2 10.1 1.4-2.9-.4-4.3 1-5.7 1.5A44.4 44.4 0 0 1 948 267c-7.6-.5-8.6-2-13.4-2 2.9.5 8.6 6.3 14 6.3 3.3 0 5.7 0 7.1-.5 1.4-.5 3.8 0 5.7 1 1.5 1.4 4.4 2.8 6.3 2.4-.5 1.9-1.5 2.8-2.9 3.3 2.4 1.5 1 2.4 3.4 4.3-1 0-2 1-3.4.5 1.4 1.4 1.4 3.4 2.9 4.3-.5 0-2 .5-2.9 0 1.4 2 0 4.3 1.4 5.3 1.5 2-1.4 4.3-3.8 2.4.5 1.4-1 2.9-2.4 2.4s-2.4-2-2-2.4c0-.5 0-.5.6-1-1 1.5-2.9 1.5-3.9 1-.4-.5-1-1-1-1.4-3.3 1-4.7-2-4.2-3.4.4-1.4 3.3-2 4.3-1.4 1 .4 1.9 1 2.9 0 1-.5 1.4-1.5 1.4-2.4 0-1.5-1.4-5.8-7.7-5.3-7.2.5-18.7-1.4-24.4-3.4-.5-.4-1-.4-1.5-1 0 2-1.9 3-1.9 4.9 0 2.4 1 4.3 3.9 5.2-1.5 2.4-3.9 2-4.8.5 0 1.5-2 2.4-2 4.3-.4-1-1-1.4-1.4-2.4-1.4 3.4-5.3 5.3-7.2 4.4-2.4 1.9-5.2 1.4-6.2-.5-1.4 1-3.4 1-4.3 0 0 1.4-1 1-1.5 2.9 0 1-1.9 1.4-2.8 1-1-.6-1.5-2.5-.5-3.4-1.4 1-2.9 1-3.8 0 0-1 0-2.4 1-3h.9c-1-.4-2.4 0-3.4-.4-1-1-1-2-.5-2.9.5-.5 2-1.4 3-.5l.4.5c0-1 .5-1.9 1-1.9 1-.5 2.3-.5 3.8 1 1 1.4 1.9 1.4 4.8 1 2.4 0 6.2-2.5 9-4.9-8-1.4-3.3-6.7-.9-8.6-1.9-.5-4.8-.5-6.7.5-10 5.3-20.6 11.5-27.3 9.6a6 6 0 0 0 1 2.8c-1.5 0-4.4 0-5.3-1.4-.5 1-1.4 3.4-.5 5.3-1-1-3.8-2-5.3-2.4 1 1 0 2.9.5 4.3-1.4-1.4-3.8-2.4-4.8-1.4s-2.9 1.4-4.3 1a7.5 7.5 0 0 1-3.8 2.8c0-1 0-2.4-.5-2.9-.5 1.5-2 3.4-3.8 4.3 0-1 0-2.4-.5-3.3 0 1.9-3.8 2.9-4.3 4.3.5-1.4.5-2.9.5-3.8a7.3 7.3 0 0 1-4.8 3.3c.4-1 1-2 .4-2.9-.4 2-3.3 3-5.7 2.4 0 1-2 2.4-4.3 1-1.5-.5-2.4-2-1.5-2.9-1.9 0-3.8-1.9-2.8-3.3 0-.5.4-1 .4-1.5-1.4-1-1.9-2.9-.4-4.3.4-.5 1.9-.5 2.8-.5 0-3.8 3.4-3.8 4.8-1 1 1.5 3.9 3.9 6.3 3.4 1 0 1.4-.5 2.4-.5a43 43 0 0 0 12-6.2c.4-1.4.4-2.4.4-3.3-1.9 1-3.8 1.9-4.8 3.3v-1.4c-1.4 0-3.8-.5-4.8-.5.5-.5 1-2.9 2-3.4-2.4.5-4.8 0-6.8-.4 1-1 1-2.4 1.5-3.9-1 .5-3.4-.4-5.3 0 .5-1.4 1-3.3 2.4-3.8-2 .5-4.3 0-6.7-1 2 0 2.9-2.4 4.3-2.4-3.8 0-4.8-1.9-6.7-2.8 1.4.4 2.4-1 3.8-1-1.4-.5-3.8-2.9-2.8-4.3-.5.5-1 1.4-2 2-1 .4-2.8 0-4.3-1.5-1-2-.5-4.3 1.5-4.8a2.3 2.3 0 0 1-1.5-3.9c.5-1 2.4-2.3 3.4-1l1.4 2c-.5-1-.5-2.9-.5-4.3.5-1.4 1.5-1.4 3-2 1.3 0 2.3 1.5 2.3 3 0 1.4.5 2.3 1 4.3l.4-2c0-1.9 2.4-1.4 3.9-1 1.4.6 1.9 3.4 0 4.9-1 1-.5 2.4.5 3.3 3.3 5.3 9 9.6 13.9 10.1 0-2 1-3.8 2.4-5.3 0-1 .4-2.4 1-3.3.4-2.9 1.8-4.3 3.7-3.4-.4-.5-1-1-1-1.4-1.4-1.5-2.8-3.9-1.8-5.8 1-1.9 3.8-1.4 4.8-.4-.5-3 2.8-5.3 2.8-6.8.5 1.5 1.5 3.4 1 4.8.5-1.9 3.8-4.3 6.2-5.2-1 1.4 2 3.8 1.5 5.2 1-2.4 4.8-3.8 7.6-3.8-1 1-1 2.9-1 3.8 1.5 0 4-.4 4.9-1.9 0 2-1 3.9-2 4.8.5-.5 2.4-.5 3.9-.5-1.5 1.5-1 3-2.4 3.9 1.9-1 4.3-1 4.8 1 1 1.4-.5 3.8-1.5 5.2-1 .5-1.9 1.4-2.4 1.4z"
                fill="#f9d050" id="path1323" />
            <g fill="none" id="g1423">
                <path d="M858 262.2c-3.4 1.4-4.4 4.8-4.9 6.7" id="path1325" />
                <path d="M857.5 265.5c-4.8 3-6.8 5.3-5.8 10.6" id="path1327" />
                <path d="M859.8 280c3-1 4.8-2 7.2-6.3" id="path1329" />
                <path d="M865.6 275.6c-1 2 0 5.3-1.4 6.7a8.8 8.8 0 0 0 4.8-6.7" id="path1331" />
                <path
                    d="M866.6 280.9c1.9-1 4.8-3.9 6.2-7.2-.5 1.4 0 3.8-1 5.3 2.4-2.4 3.4-3.9 3.9-6.3l.4 2c1-1 2-2 2-3.9"
                    id="path1333" />
                <path d="M878 272.2v2.4c2-1.4 2.5-3.3 2.5-5.7" id="path1335" />
                <path d="M880 271.8c2.9-2 3.3-4.8 3.3-9.1" id="path1337" />
                <path d="M883.3 267.5c2-1.5 2.4-2.4 2.4-6.8" id="path1339" />
                <path
                    d="M879.5 247.8c-1 0-2 .5-2 2 0 .9-1.4 2.3-1.4 3.8-.4 1.9-1.4 2.4-2.8 1.9-1.5-1-1.5-1-1.5-2.4 0-2 2.4-2.4 2.4-4.3.5-1 1-2.4 1.5-2.4-2.4 1.4-5.8.4-6.3-2.4"
                    id="path1341" />
                <path d="M883.8 249.2c-1 .5-2-1-3.3-.4-.5 0-2 .4-2.4 0" id="path1343" />
                <path d="M877.1 251.6c.5.5 2.9 1.5 5.3.5-2 .5-3.4-1.9-1.5-3.3" id="path1345" />
                <path d="M872.8 246.8c-2 0-3.4 1.5-2.9 3 .5 1.4 2.4 1.4 3.8.4" id="path1347" />
                <path
                    d="M869.4 270.8c.5-.5 1-1.4 1-2 1 0 2-.4 2.4-.9 1.9 0 3.3-1.4 3.8-2.8 1 0 1.5-2.4 2-3.4.4.5 1.4 0 1.9-2 1 .6 2.4 0 2.8-1.4"
                    id="path1349" />
                <path
                    d="M863.7 255c0 .5-1 1.4-2 2 .5.9 0 3.3-.9 3.7.5 1 0 2.4-.5 3.4 0 .5.5 2 .5 2.4"
                    id="path1351" />
                <path d="M865.6 245.4c-1 2.4-.5 5.3 1.4 5.8" id="path1353" />
                <path d="M866.6 253c-.5 2.5-.5 5.8-1 7.3-.5 1-1.4 4.3 2.4 5.2 4.3 1 6.7.5 9.1-6.7"
                    id="path1355" />
                <path d="M884.3 277.5c0 .5-.5 1.5-1.4 1.5" id="path1357" />
                <path d="M887.6 276.6c0 1-1 2.4-1.4 2.8" id="path1359" />
                <path d="M891 275.6c0 1 0 2.4-1 2.9" id="path1361" />
                <path d="M861.8 245.9c.4 0 1 1 1.4 1.9-1.4-1-2.9 1.4-2 2.9" id="path1363" />
                <path d="m860.3 254-1.9 1.5" id="path1365" />
                <path d="M858.9 258.3c-.5 0-1 .5-1.4.5" id="path1367" />
                <path d="M835.9 249.7c0-.5 0-.5.5-1" id="path1369" />
                <path d="M831.6 248.3c-.5 0-.5 0-1-.5" id="path1371" />
                <path d="M832 255h1" id="path1373" />
                <path d="M830.1 252.1a5 5 0 0 0-2.8-1.4" id="path1375" />
                <path d="M856.5 269.9c-3.4 2.8-4.8 5.2-5.3 8.6" id="path1377" />
                <path d="M859.8 272.2a11 11 0 0 1-3.8 4.4" id="path1379" />
                <path d="M841.2 286.6a11 11 0 0 1-9.6-1.4c-.5-.5-1-.5-1.5-1" id="path1381" />
                <path d="M855.5 280c-.4 1.8-1 4.2-1.9 4.7 3.9-2 7.2-4.8 7.7-9.1" id="path1383" />
                <path d="M827.7 289c1.5-.5 3 .5 3.9-.5" id="path1385" />
                <path d="M911.1 273.2c1 .5 2.4 1 2.9 1.4.5-1 2.4-2.4 3.8-2.8" id="path1387" />
                <path d="M877.1 283.3c-.5-2 .5-4.3 3.4-5.3" id="path1389" />
                <path d="M858.4 291.4c.5-1 .5-2.4 1-3.3" id="path1391" />
                <path d="M837.3 292.9c-.5 1-1.4 1.9-1.4 2.8" id="path1393" />
                <path d="M830.1 293.8s0-.5.5-.5c1-.4 2.4-1.4 2.9-2.4" id="path1395" />
                <path d="M895.3 287.1c-1 .5-1.4 0-1.9-.5" id="path1397" />
                <path d="M894.8 289.5s-.4.5-1 .5" id="path1399" />
                <path d="M897.2 291.9c-.5.5-1 1-1.4 1" id="path1401" />
                <path d="M911.1 292.9c1-.5 1.5-1.5 2-3.4" id="path1403" />
                <path d="M904.9 292.4c1.4-.5 2.4-1.5 3.8-2.9" id="path1405" />
                <path d="M918.3 288.5c0-1 0-1.9.5-2.8" id="path1407" />
                <path d="M953.8 292.9c-1-1-1-2.4.5-3.4 1-.5 1.4-1 2.4-1.4" id="path1409" />
                <path d="M924.5 276c-7.6-3.3-7.1-7.6-13.4-7.1" id="path1411" />
                <path d="M958.6 291c.5.4 0 1.9 0 2.3" id="path1413" />
                <path d="M962.9 291c-.5 1.4-.5 1.9-.5 3.3" id="path1415" />
                <path d="M926 245.9h-4" id="path1417" />
                <path d="M885.7 262.2c0 1 1.5 2.9 5.3 2.9-.5 0-1-.5-1-.5" id="path1419" />
                <path
                    d="M887.6 256.4c-.4.5-1 0-1 0-.9-1 .6-2.8 2-3.8-1.4.5-2.4.5-3.4.5-1 2.9-3.8 4.3-5.7 2.4-.5 1.9-2.9 4.3-4.8 3.8-2-1-2.4-2.4-2-3.8-2.3 2.8-5.2 1-6.1 0-.5-1 0-3.4 1-6.3"
                    id="path1421" />
            </g>
            <path
                d="M918.3 274.6c-1.4 1-2.9 0-4.3 1.5-1 1 .5 1.4 1.4 1.4-.4 1.5-.4 2 2 2-1 1.4 1.9 1.9 1.4 3.8a4.6 4.6 0 0 0 1-4.8c-.5-1.5-3-2.4-1.5-3.9z"
                fill="#000" id="path1425" stroke="none" />
            <g fill="#073163" id="g1461" stroke="none">
                <path
                    d="M874.7 259.3c-2-1-2.4-2.4-2-3.8-.4 1-1.3 1.4-2.3 1.4-2 4.3-4.3 8.2-7.2 8.2-3.4.4-2.9 3.8-.5 3.8 5.3 1 7.7-1 12-9.6z"
                    id="path1427" />
                <path
                    d="M827.3 247.8c1.4-1.4.4-2.9-.5-3.3-1.5-.5-4.3 0-5.8 2.3 1.5-.4 3-.4 3.4.5.5 1 1.4 2 2.9.5z"
                    id="path1429" />
                <path
                    d="M829.7 239.2c3.3 0 4.3.5 4.7 1.9.5 1-.4 2.4-1.4 2.4-1.4 0-2.9-1-2.4-1.4.5-1 .5-2.4-1-3z"
                    id="path1431" />
                <path d="M839.2 246.8c2.4.5 3.4-1 2-2.8-.5-1.5-2-2.4-4.4-2 2.4 1.5 0 3.9 2.4 4.8z"
                    id="path1433" />
                <path
                    d="M821.5 255a4 4 0 0 0 4.8 2c1.4-.6 2-2 1.4-3-1-1.4-2.4-1.9-2.8 0-1 2-2.4 1.5-3.4 1z"
                    id="path1435" />
                <path
                    d="M828.7 284.2c-1-1.9-3.8-1.9-6.2 0 1-.5 2.8 0 3.3 1s1.5 1 2 1c.4-.5 1.4-1 .9-2z"
                    id="path1437" />
                <path
                    d="M832.5 281.4c0-2.4-3.3-3-5.2-2 1 0 2.4 1 2.4 2 .4 1 1.4 1.4 1.9 1.4 1-.5 1.4-1 1-1.4z"
                    id="path1439" />
                <path
                    d="M827.7 290c-2.8-.5-4.3 2.9-4.3 5.2.5-1.4 2-2.3 3.4-1.9 1.4 0 1.9-.4 1.9-1.4.5-1 0-1.4-1-2z"
                    id="path1441" />
                <path
                    d="M828.2 298.1c1 .5 2-.5 2.4-1.9 0-1 2-1 2.4-.5 1 .5 1 2.4-.5 3.4-1 .5-3.3 1-4.3-1z"
                    id="path1443" />
                <path
                    d="M894.8 283.7c-1-.4-3.3-1.4-5.2 0 1.4-.4 2.4.5 2.8 1.5 0 1 1.5 1.4 2 .5.4-.5 1-1.5.4-2z"
                    id="path1445" />
                <path
                    d="M890.5 287.1c-1.9-1-4.3 1.4-4.8 3.4a7 7 0 0 1 3.4-1.5c1 .5 1.9 0 1.9-1 .5-.4.5-.9-.5-.9z"
                    id="path1447" />
                <path
                    d="M893 291c-1.5 0-3.4 1.9-3.4 3.8.4-1 1.4-1.5 2.4-1 1 0 2.4-.5 2.4-1.4 0-1-.5-1.5-1.5-1.5z"
                    id="path1449" />
                <path
                    d="M897.2 294.8c-1-.5-2.4 0-2.4 1.4s0 2.9-.4 3.4c1-1 1.9-1.5 2.8-2 .5-.4 1-1.9 0-2.8z"
                    id="path1451" />
                <path
                    d="M951.4 290.5c-1-1-2.4-.5-2.9.4-.5 1-1 3.4 0 5.3 0-1 1-2.4 2-2.4 1.4-.5 1.8-2.4.9-3.3z"
                    id="path1453" />
                <path
                    d="M954.3 292.4c-2 1-2 4.3-.5 6.2 0-1 .5-2.4 1.4-2.9 1.5 0 2-1.9 1.5-2.8-1-1-2-.5-2.4-.5z"
                    id="path1455" />
                <path
                    d="M960 294.3c-1-.5-2 .5-2 1.4-.4 1.5.6 3.4 2 4.3 0-1 .5-1.9 1-2.4 1.4-1 1-2.8-1-3.3z"
                    id="path1457" />
                <path
                    d="M964.3 293.8c-1 0-1.9 1.4-1 2.9.5 1 1.5 1.4 3.4 1-.5 0-1.4-1.5-1-2 .5-1 0-1.9-1.4-1.9z"
                    id="path1459" />
            </g>
        </g>
        <g id="star">
            <path d="m831.1 383.4 24-73.8 24 73.8-62.9-45.5H894Z" fill="#f9d050" id="path1464" />
            <path d="m835.9 376.7 49.8-36.4h-61.3l49.3 36.4-18.6-58.4z" fill="#024919"
                id="path1466" />
        </g>
        <use height="100%" id="use1469" width="100%" x="90.1" y="0" xlink:href="#star" />
        <use height="100%" id="use1471" width="100%" x="45" y="52.2" xlink:href="#star" />
        <path d="M989.7 233v93.4c0 81-38.3 108.8-89.6 130.8-51.3-22-90-49.8-90-130.8v-93.5h179.6z"
            fill="none" id="path1473" stroke="#000" stroke-width="1.4" />
    </g>
</svg>
