<svg version="1.0" xmlns="http://www.w3.org/2000/svg" width="512" height="512" viewBox="0 0 384 384">
    <style>
        path {
        fill: #0038FF;
        }
        @media ( prefers-color-scheme: dark ) {
        path {
        fill: #fefd03;
        }
        }
    </style>
    <path d="M0 192V301.664h164.96v-39.232c0 -29.44 -0.064 -39.264 -0.192 -39.296 -0.16 -0.064 -97.952 -0.032 -98.432 0.032 -0.096 0.032 -0.16 1.376 -0.16 3.712 0.032 2.048 0.032 3.744 0.064 3.808s20.416 0.096 45.344 0.096c24.896 -0.032 45.376 0.032 45.504 0.064 0.16 0.064 0.224 7.36 0.192 31.488v31.424H7.68V90.016h149.6l-0.032 31.616v31.584l-45.376 -0.032c-24.992 0 -45.472 0.032 -45.568 0.064s-0.16 1.472 -0.16 3.872l0.032 3.808h98.784v-70.784l33.664 -0.064 33.664 -0.032 0.032 35.424 0.064 35.456h78.688l0.032 -34.944c0 -19.232 0.032 -35.104 0.032 -35.296l0.032 -0.352h65.184V301.664h7.68V82.56h-40.32l-40.32 0.032 -0.064 28.064c-0.032 15.424 -0.064 31.296 -0.064 35.232l-0.032 7.168 -13.152 0.032c-41.088 0.096 -49.792 0.096 -49.792 -0.064 -0.032 -0.096 -0.064 -15.936 -0.064 -35.232s-0.064 -35.136 -0.064 -35.264c-0.032 -0.16 -24.16 -0.224 -120.096 -0.224H0v109.664z"/>
    <path d="M232.64 223.2c-0.064 0.064 -0.128 17.568 -0.128 38.976 0 30.72 0.064 38.912 0.224 38.976s6.592 0.096 7.296 0.032c0.128 -0.032 0.16 -11.776 0.16 -35.136 0 -35.008 0 -35.136 0.352 -35.168 0.288 -0.064 62.368 -0.032 62.688 0.032 0.064 0.032 0.096 15.776 0.096 35.008 0.032 19.264 0.032 35.136 0.032 35.296 0.032 0.256 0.448 0.288 3.84 0.256l3.808 -0.032 0.032 -39.136 0.032 -39.136h-39.136c-21.504 0 -39.2 0.032 -39.264 0.096z"/>
</svg>