<svg id="flag-icons-es-ga" version="1.0" viewBox="0 0 640 480" xmlns="http://www.w3.org/2000/svg">
    <g font-size="12" id="g5162" transform="matrix(1.06667 0 0 1.2001 0 -115.3)">
        <path d="M0 96h600v400H0z" fill="#fff" fill-opacity="1" fill-rule="evenodd" id="rect733"
            stroke-width="1pt" />
        <path d="M600 437.8 86 96H0v57l516 343h84v-58.2" fill="#09c" id="path556" />
    </g>
    <g font-size="12" id="g4979" transform="matrix(1.06667 0 0 1.06758 0 -76)">
        <path d="M296.6 401.2c-60 0-58.1-56.5-58.1-56.5v-86.9h116.3v86.9s2 56.5-58.2 56.5"
            fill="#005bbf" fill-opacity="1" id="path558" />
        <path d="M296.6 401.2c-60 0-58.1-56.5-58.1-56.5v-86.9h116.3v86.9s2 56.5-58.2 56.5z"
            fill="none" id="path559" stroke="#000" stroke-width="1" />
        <path
            d="M296.1 203.2s-12.4-6-24.1 2.8c0 0-21.1-3-22.7 17.2 0 .8-.2 2.3.2 2.8.4.4.8 1.2.8 1.8 0 .6.3.9.5 1.1 0 .3.4.7.5 1.7 0 1.1-.2 1.6.9 2.7 1 1 1 4.1 1 5 0 .9.6 3.3 1 3.8.5.5 1.3 1.8 1.3 2.9 0 1 .4 4 .2 4.7-.2.8 1.2 1.7 2.4 2.1 1.2.4 16 5.2 37.6 4.8 21.6-.3 29.4-1.5 38.4-4.7a2.2 2.2 0 0 0 1.5-2.3c-.2-.6 0-2.6.3-3.1.4-.5 3-4.6 2.4-5.3-.5-.8-.5-2.4 0-3 .5-.7 2.1-3.7 2.4-5 .3-1.2.4-2.7 1-3.1.5-.4.7-1.9.8-2.2a4 4 0 0 1 1.2-1.6s1-5.1.4-7.6c-.7-2.5-4.5-13.3-19.8-11 0 0-11.4-8.7-28.2-4.5"
            fill="#d81126" fill-opacity="1" id="path560" />
        <path
            d="M296.1 203.2s-12.4-6-24.1 2.8c0 0-21.1-3-22.7 17.2 0 .8-.2 2.3.2 2.8.4.4.8 1.2.8 1.8 0 .6.3.9.5 1.1 0 .3.4.7.5 1.7 0 1.1-.2 1.6.9 2.7 1 1 1 4.1 1 5 0 .9.6 3.3 1 3.8.5.5 1.3 1.8 1.3 2.9 0 1 .4 4 .2 4.7-.2.8 1.2 1.7 2.4 2.1 1.2.4 16 5.2 37.6 4.8 21.6-.3 29.4-1.5 38.4-4.7a2.2 2.2 0 0 0 1.5-2.3c-.2-.6 0-2.6.3-3.1.4-.5 3-4.6 2.4-5.3-.5-.8-.5-2.4 0-3 .5-.7 2.1-3.7 2.4-5 .3-1.2.4-2.7 1-3.1.5-.4.7-1.9.8-2.2a4 4 0 0 1 1.2-1.6s1-5.1.4-7.6c-.7-2.5-4.5-13.3-19.8-11 0 0-11.4-8.7-28.2-4.5z"
            fill="none" id="path561" stroke="#000" stroke-width="1.5" />
        <path
            d="M337.6 240.8c-47-14.9-83.4-.7-83.4-.7s.4 1.6.8 2.1 1 1.7 1 2.6v2.8c0 .7-.4 3.7 2.2 3.6 0 0 32.8-12.8 75.4.7 0 0 1.2-1 1.2-2.5a8 8 0 0 1 1-4c.5-.8 1.8-3.4 1.8-4.6"
            fill="#bcac0b" fill-opacity="1" id="path562" />
        <path
            d="M294 319.3h-20.5s-2 18.3 13.8 23.9v1.6h3.3v2.2s-5.8 5.2-.7 11.2v1.8h.8v3h1v4.7s-.8 17-17.6 25.2v1h44.7v-1c-16.7-8.1-17.5-25.2-17.5-25.2V363h1v-3h.8v-1.8c5-6-.8-11.2-.8-11.2v-2.2h3.4v-1.6c15.7-5.6 13.7-23.9 13.7-23.9H294"
            fill="#c8b100" fill-opacity=".9" id="path563" />
        <path
            d="M294 319.3h-20.5s-2 18.3 13.8 23.9v1.6h3.3v2.2s-5.8 5.2-.7 11.2v1.8h.8v3h1v4.7s-.8 17-17.6 25.2v1h44.7v-1c-16.7-8.1-17.5-25.2-17.5-25.2V363h1v-3h.8v-1.8c5-6-.8-11.2-.8-11.2v-2.2h3.4v-1.6c15.7-5.6 13.7-23.9 13.7-23.9H294z"
            fill="none" id="path564" stroke="#000" stroke-width="1" />
        <path
            d="M286.6 342.9h19.7m-19 1.5h18.4m-15 2.5h11.5m-12.3 11.5H303m-12.4 1.4h11.6m-11.6 2.8h11.5m-18.5 23.2h25.5m-32.7 5.9h40m-41.5.9h43"
            fill="none" id="path565" stroke="#000" stroke-width=".3" />
        <path d="M296.6 318.3a13 13 0 1 0 0-26.1 13 13 0 0 0 0 26" fill="#ccc" fill-opacity="1"
            id="path566" />
        <path d="M296.6 318.3a13 13 0 1 0 0-26.1 13 13 0 0 0 0 26z" fill="none" id="path567"
            stroke="#000" stroke-width="1" />
        <path d="M266.3 280h-8.1v-8.2H251v8.2h-8.2v7.2h8.2v8h7.2v-8h8V280" fill="#ccc"
            fill-opacity="1" id="path568" />
        <path d="M266.3 280h-8.1v-8.2H251v8.2h-8.2v7.2h8.2v8h7.2v-8h8V280" fill="none" id="path569"
            stroke="#000" stroke-width="1" />
        <path d="M350.8 280h-8.1v-8.2h-7.2v8.2h-8.2v7.2h8.2v8h7.2v-8h8.1V280" fill="#ccc"
            fill-opacity="1" id="path570" />
        <path d="M350.8 280h-8.1v-8.2h-7.2v8.2h-8.2v7.2h8.2v8h7.2v-8h8.1V280" fill="none"
            id="path571" stroke="#000" stroke-width="1" />
        <path d="M308 269.7h-8.2v-8h-7.2v8h-8v7.2h8v8.2h7.2v-8.2h8.2v-7.2" fill="#ccc"
            fill-opacity="1" id="path572" />
        <path d="M308 269.7h-8.2v-8h-7.2v8h-8v7.2h8v8.2h7.2v-8.2h8.2v-7.2" fill="none" id="path573"
            stroke="#000" stroke-width="1" />
        <path d="M266.3 315.2h-8.1V307H251v8.2h-8.2v7.2h8.2v8h7.2v-8h8v-7.2" fill="#ccc"
            fill-opacity="1" id="path574" />
        <path d="M266.3 315.2h-8.1V307H251v8.2h-8.2v7.2h8.2v8h7.2v-8h8v-7.2" fill="none"
            id="path575" stroke="#000" stroke-width="1" />
        <path d="M350.8 315.2h-8.1V307h-7.2v8.2h-8.2v7.2h8.2v8h7.2v-8h8.1v-7.2" fill="#ccc"
            fill-opacity="1" id="path576" />
        <path d="M350.8 315.2h-8.1V307h-7.2v8.2h-8.2v7.2h8.2v8h7.2v-8h8.1v-7.2" fill="none"
            id="path577" stroke="#000" stroke-width="1" />
        <path d="M266.3 350.7h-8.1v-8.1H251v8.1h-8.2v7.2h8.2v8.1h7.2v-8h8v-7.3" fill="#ccc"
            fill-opacity="1" id="path578" />
        <path d="M266.3 350.7h-8.1v-8.1H251v8.1h-8.2v7.2h8.2v8.1h7.2v-8h8v-7.3" fill="none"
            id="path579" stroke="#000" stroke-width="1" />
        <path d="M350.8 350.7h-8.1v-8.1h-7.2v8.1h-8.2v7.2h8.2v8.1h7.2v-8h8.1v-7.3" fill="#ccc"
            fill-opacity="1" id="path580" />
        <path d="M350.8 350.7h-8.1v-8.1h-7.2v8.1h-8.2v7.2h8.2v8.1h7.2v-8h8.1v-7.3" fill="none"
            id="path581" stroke="#000" stroke-width="1" />
        <path d="M296.5 185.8a7.8 7.8 0 1 0 0-15.7 7.8 7.8 0 0 0 0 15.7" fill="#005bbf"
            fill-opacity="1" id="path582" />
        <path d="M296.5 185.8a7.8 7.8 0 1 0 0-15.7 7.8 7.8 0 0 0 0 15.7z" fill="none" id="path583"
            stroke="#000" stroke-width="1" />
        <path d="M303.8 176.6h-6.4v-10.4h2.5v-2h-2.5v-2.5h-2v2.4h-2.5v2.1h2.4v10.4h-6v1.4h14.5v-1.4"
            fill="#fc0" fill-opacity="1" id="path584" />
        <path d="M303.8 176.6h-6.4v-10.4h2.5v-2h-2.5v-2.5h-2v2.4h-2.5v2.1h2.4v10.4h-6v1.4h14.5v-1.4"
            fill="#bcac0b" fill-opacity="1" id="path585" stroke="#000" stroke-width=".5" />
        <path
            d="M265.2 195.1s5.8-.6 9.1.7c0 0-3.8 4.4-3 10.1.4 3 1 4.5 1.9 6 .8 1.3 1.7 4.3 1.2 6.6h1.1s1.1-4.8-.7-7.4a10 10 0 0 1-1-10.3c1.9-3.8 4.6-5.3 4.6-5.3 3 1.2 9.6 0 11.4-1.3 1.9-1.3 2.8-3.2-.6-3.3-3.5-.2-9.3-.1-13.3 2.9 0 0-2.1-2.4-12.6-1.3-10.5 1.2-18 5.7-20.4 15.1-1.2 4.8 3.3 14.9 7.4 17.3 0 0-.1-1.6.3-2.8 0 0-7-7.9-5-15.2 2.2-7.2 10.6-12 19.6-11.8"
            fill="#fc0" fill-opacity="1" id="path586" />
        <path
            d="M265.2 195.1s5.8-.6 9.1.7c0 0-3.8 4.4-3 10.1.4 3 1 4.5 1.9 6 .8 1.3 1.7 4.3 1.2 6.6h1.1s1.1-4.8-.7-7.4a10 10 0 0 1-1-10.3c1.9-3.8 4.6-5.3 4.6-5.3 3 1.2 9.6 0 11.4-1.3 1.9-1.3 2.8-3.2-.6-3.3-3.5-.2-9.3-.1-13.3 2.9 0 0-2.1-2.4-12.6-1.3-10.5 1.2-18 5.7-20.4 15.1-1.2 4.8 3.3 14.9 7.4 17.3 0 0-.1-1.6.3-2.8 0 0-7-7.9-5-15.2 2.2-7.2 10.6-12 19.6-11.8z"
            fill="#bcac0b" fill-opacity="1" id="path587" stroke="#000" stroke-width=".7" />
        <path
            d="M284.9 193.7c1.8-.2 3.3-.5 3.2-.7 0-.3-1.5-.3-3.3-.2-1.8.1-3.2.5-3.2.7 0 .3 1.5.3 3.3.2"
            fill="#fff" id="path588" />
        <path d="M278.3 195.4s-2 2 0 0 6.4-3.2 8.9-2.7c2.4.6-.5.9-1.3 1-.8 0-2.4.3-4.8 0"
            fill="none" id="path589" stroke="#000" stroke-width=".7" />
        <path
            d="M327.7 195.8s-5.7-.7-9.1.6a14.6 14.6 0 0 1 1.2 16c-.9 1.5-1.8 4.4-1.3 6.7h-1s-1.2-4.7.7-7.4a10 10 0 0 0 .9-10.2 12.6 12.6 0 0 0-4.5-5.4c-3.1 1.3-9.7 0-11.5-1.3-1.8-1.3-2.8-3.1.7-3.3 3.4-.2 9.3-.1 13.3 3 0 0 2-2.5 12.6-1.3 10.4 1.1 18 5.6 20.3 15 1.2 4.8-3.2 14.9-7.3 17.3 0 0 0-1.6-.3-2.8 0 0 7-7.8 4.9-15.1-2.1-7.3-10.5-12-19.6-11.8"
            fill="#fc0" fill-opacity="1" id="path590" />
        <path
            d="M327.7 195.8s-5.7-.7-9.1.6a14.6 14.6 0 0 1 1.2 16c-.9 1.5-1.8 4.4-1.3 6.7h-1s-1.2-4.7.7-7.4a10 10 0 0 0 .9-10.2 12.6 12.6 0 0 0-4.5-5.4c-3.1 1.3-9.7 0-11.5-1.3-1.8-1.3-2.8-3.1.7-3.3 3.4-.2 9.3-.1 13.3 3 0 0 2-2.5 12.6-1.3 10.4 1.1 18 5.6 20.3 15 1.2 4.8-3.2 14.9-7.3 17.3 0 0 0-1.6-.3-2.8 0 0 7-7.8 4.9-15.1-2.1-7.3-10.5-12-19.6-11.8z"
            fill="#bcac0b" fill-opacity="1" id="path591" stroke="#000" stroke-width=".7" />
        <path
            d="M308 194.3c-1.8-.1-3.2-.4-3.2-.7 0-.2 1.5-.3 3.3-.2 1.8.2 3.3.5 3.3.7 0 .3-1.5.4-3.4.2"
            fill="#fff" id="path592" />
        <path d="M314.6 196s2.1 2 0 0c-2-1.9-6.4-3.2-8.8-2.6-2.5.5.4.8 1.2.9.9 0 2.5.4 4.9 0"
            fill="none" id="path593" stroke="#000" stroke-width=".7" />
        <path
            d="M291.1 189.3v22.3c-.2 2.2 2.7 5.3 4.8 6.2 0 0 5-1.6 5.3-6.2v-23.5h-1.7v20.4c0 2-1.4 5.8-3.3 6.4 0 0-3.6-.6-3.8-6.4v-19.8l-1.3.6"
            fill="#fc0" fill-opacity="1" id="path594" />
        <path
            d="M291.1 189.3v22.3c-.2 2.2 2.7 5.3 4.8 6.2 0 0 5-1.6 5.3-6.2v-23.5h-1.7v20.4c0 2-1.4 5.8-3.3 6.4 0 0-3.6-.6-3.8-6.4v-19.8l-1.3.6"
            fill="#bcac0b" fill-opacity="1" id="path595" stroke="#000" stroke-width=".7" />
        <path d="M241.8 219.8a2.7 2.7 0 1 0 0-5.3 2.7 2.7 0 0 0 0 5.3" fill="#fff" id="path596" />
        <path d="M241.8 219.8a2.7 2.7 0 1 0 0-5.3 2.7 2.7 0 0 0 0 5.3z" fill="none" id="path597"
            stroke="#000" stroke-width="1" />
        <path d="M240.1 213.7a2.7 2.7 0 1 0 0-5.3 2.7 2.7 0 0 0 0 5.3" fill="#fff" id="path598" />
        <path d="M240.1 213.7a2.7 2.7 0 1 0 0-5.3 2.7 2.7 0 0 0 0 5.3z" fill="none" id="path599"
            stroke="#000" stroke-width="1" />
        <path d="M241 206.3a2.7 2.7 0 1 0 0-5.3 2.7 2.7 0 0 0 0 5.3" fill="#fff" id="path600" />
        <path d="M241 206.3a2.7 2.7 0 1 0 0-5.3 2.7 2.7 0 0 0 0 5.3z" fill="none" id="path601"
            stroke="#000" stroke-width="1" />
        <path d="M245.1 200.1a2.7 2.7 0 1 0 0-5.3 2.7 2.7 0 0 0 0 5.3" fill="#fff" id="path602" />
        <path d="M245.1 200.1a2.7 2.7 0 1 0 0-5.3 2.7 2.7 0 0 0 0 5.3z" fill="none" id="path603"
            stroke="#000" stroke-width="1" />
        <path d="M250 195.6a2.7 2.7 0 1 0 0-5.3 2.7 2.7 0 0 0 0 5.3" fill="#fff" id="path604" />
        <path d="M250 195.6a2.7 2.7 0 1 0 0-5.3 2.7 2.7 0 0 0 0 5.3z" fill="none" id="path605"
            stroke="#000" stroke-width="1" />
        <path d="M256.4 193.1a2.7 2.7 0 1 0 0-5.3 2.7 2.7 0 0 0 0 5.3" fill="#fff" id="path606" />
        <path d="M256.4 193.1a2.7 2.7 0 1 0 0-5.3 2.7 2.7 0 0 0 0 5.3z" fill="none" id="path607"
            stroke="#000" stroke-width="1" />
        <path d="M263 192a2.7 2.7 0 1 0 0-5.4 2.7 2.7 0 0 0 0 5.3" fill="#fff" id="path608" />
        <path d="M263 192a2.7 2.7 0 1 0 0-5.4 2.7 2.7 0 0 0 0 5.3z" fill="none" id="path609"
            stroke="#000" stroke-width="1" />
        <path d="M269.3 191.6a2.7 2.7 0 1 0 0-5.4 2.7 2.7 0 0 0 0 5.4" fill="#fff" id="path610" />
        <path d="M269.3 191.6a2.7 2.7 0 1 0 0-5.4 2.7 2.7 0 0 0 0 5.4z" fill="none" id="path611"
            stroke="#000" stroke-width="1" />
        <path d="M275 192a2.7 2.7 0 1 0 0-5.3 2.7 2.7 0 0 0 0 5.4" fill="#fff" id="path612" />
        <path d="M275 192a2.7 2.7 0 1 0 0-5.3 2.7 2.7 0 0 0 0 5.4z" fill="none" id="path613"
            stroke="#000" stroke-width="1" />
        <path d="M291 190a2.7 2.7 0 1 0 0-5.3 2.7 2.7 0 0 0 0 5.3" fill="#fff" id="path614" />
        <path d="M291 190a2.7 2.7 0 1 0 0-5.3 2.7 2.7 0 0 0 0 5.3z" fill="none" id="path615"
            stroke="#000" stroke-width="1" />
        <path d="M296.2 191.4a2.7 2.7 0 1 0 0-5.3 2.7 2.7 0 0 0 0 5.3" fill="#fff" id="path616" />
        <path d="M296.2 191.4a2.7 2.7 0 1 0 0-5.3 2.7 2.7 0 0 0 0 5.3z" fill="none" id="path617"
            stroke="#000" stroke-width="1" />
        <path d="M296.2 211.2a2.7 2.7 0 1 0 0-5.4 2.7 2.7 0 0 0 0 5.4" fill="#fff" id="path618" />
        <path d="M296.2 211.2a2.7 2.7 0 1 0 0-5.4 2.7 2.7 0 0 0 0 5.4z" fill="none" id="path619"
            stroke="#000" stroke-width="1" />
        <path d="M351.3 221.5a2.7 2.7 0 1 0 0-5.3 2.7 2.7 0 0 0 0 5.3" fill="#fff" id="path620" />
        <path d="M351.3 221.5a2.7 2.7 0 1 0 0-5.3 2.7 2.7 0 0 0 0 5.3z" fill="none" id="path621"
            stroke="#000" stroke-width="1" />
        <path d="M352.7 215a2.7 2.7 0 1 0 0-5.4 2.7 2.7 0 0 0 0 5.3" fill="#fff" id="path622" />
        <path d="M352.7 215a2.7 2.7 0 1 0 0-5.4 2.7 2.7 0 0 0 0 5.3z" fill="none" id="path623"
            stroke="#000" stroke-width="1" />
        <path d="M351.6 208a2.7 2.7 0 1 0 0-5.3 2.7 2.7 0 0 0 0 5.3" fill="#fff" id="path624" />
        <path d="M351.6 208a2.7 2.7 0 1 0 0-5.3 2.7 2.7 0 0 0 0 5.3z" fill="none" id="path625"
            stroke="#000" stroke-width="1" />
        <path d="M348.7 201.5a2.7 2.7 0 1 0 0-5.4 2.7 2.7 0 0 0 0 5.4" fill="#fff" id="path626" />
        <path d="M348.7 201.5a2.7 2.7 0 1 0 0-5.4 2.7 2.7 0 0 0 0 5.4z" fill="none" id="path627"
            stroke="#000" stroke-width="1" />
        <path d="M343.8 197a2.7 2.7 0 1 0 0-5.4 2.7 2.7 0 0 0 0 5.3" fill="#fff" id="path628" />
        <path d="M343.8 197a2.7 2.7 0 1 0 0-5.4 2.7 2.7 0 0 0 0 5.3z" fill="none" id="path629"
            stroke="#000" stroke-width="1" />
        <path d="M337.9 194a2.7 2.7 0 1 0 0-5.3 2.7 2.7 0 0 0 0 5.3" fill="#fff" id="path630" />
        <path d="M337.9 194a2.7 2.7 0 1 0 0-5.3 2.7 2.7 0 0 0 0 5.3z" fill="none" id="path631"
            stroke="#000" stroke-width="1" />
        <path d="M331.1 192.5a2.7 2.7 0 1 0 0-5.3 2.7 2.7 0 0 0 0 5.3" fill="#fff" id="path632" />
        <path d="M331.1 192.5a2.7 2.7 0 1 0 0-5.3 2.7 2.7 0 0 0 0 5.3z" fill="none" id="path633"
            stroke="#000" stroke-width="1" />
        <path d="M325 192a2.7 2.7 0 1 0 0-5.3 2.7 2.7 0 0 0 0 5.3" fill="#fff" id="path634" />
        <path d="M325 192a2.7 2.7 0 1 0 0-5.3 2.7 2.7 0 0 0 0 5.3z" fill="none" id="path635"
            stroke="#000" stroke-width="1" />
        <path d="M319.4 191.3a2.7 2.7 0 1 0 0-5.4 2.7 2.7 0 0 0 0 5.4" fill="#fff" id="path636" />
        <path d="M319.4 191.3a2.7 2.7 0 1 0 0-5.4 2.7 2.7 0 0 0 0 5.4z" fill="none" id="path637"
            stroke="#000" stroke-width="1" />
        <path d="M323 213a2.7 2.7 0 1 0 0-5.3 2.7 2.7 0 0 0 0 5.4" fill="#fff" id="path638" />
        <path d="M323 213a2.7 2.7 0 1 0 0-5.3 2.7 2.7 0 0 0 0 5.4z" fill="none" id="path639"
            stroke="#000" stroke-width="1" />
        <path d="M324.4 208a2.7 2.7 0 1 0 0-5.4 2.7 2.7 0 0 0 0 5.3" fill="#fff" id="path640" />
        <path d="M324.4 208a2.7 2.7 0 1 0 0-5.4 2.7 2.7 0 0 0 0 5.3z" fill="none" id="path641"
            stroke="#000" stroke-width="1" />
        <path d="M302 190.9a2.7 2.7 0 1 0 0-5.4 2.7 2.7 0 0 0 0 5.4" fill="#fff" id="path642" />
        <path d="M302 190.9a2.7 2.7 0 1 0 0-5.4 2.7 2.7 0 0 0 0 5.4z" fill="none" id="path643"
            stroke="#000" stroke-width="1" />
        <path d="M289 190.1a2.7 2.7 0 1 0 0-5.3 2.7 2.7 0 0 0 0 5.3" fill="#fff" id="path644" />
        <path d="M289 190.1a2.7 2.7 0 1 0 0-5.3 2.7 2.7 0 0 0 0 5.3z" fill="none" id="path645"
            stroke="#000" stroke-width="1" />
        <path d="M285.8 190a2.7 2.7 0 1 0 0-5.3 2.7 2.7 0 0 0 0 5.3" fill="#fff" id="path646" />
        <path d="M285.8 190a2.7 2.7 0 1 0 0-5.3 2.7 2.7 0 0 0 0 5.3z" fill="none" id="path647"
            stroke="#000" stroke-width="1" />
        <path d="M268.8 213.1a2.7 2.7 0 1 0 0-5.3 2.7 2.7 0 0 0 0 5.3" fill="#fff" id="path648" />
        <path d="M268.8 213.1a2.7 2.7 0 1 0 0-5.3 2.7 2.7 0 0 0 0 5.3z" fill="none" id="path649"
            stroke="#000" stroke-width="1" />
        <path d="M268 206.8a2.7 2.7 0 1 0 0-5.4 2.7 2.7 0 0 0 0 5.4" fill="#fff" id="path650" />
        <path d="M268 206.8a2.7 2.7 0 1 0 0-5.4 2.7 2.7 0 0 0 0 5.4z" fill="none" id="path651"
            stroke="#000" stroke-width="1" />
        <path d="M270 200.6a2.7 2.7 0 1 0 0-5.3 2.7 2.7 0 0 0 0 5.3" fill="#fff" id="path652" />
        <path d="M270 200.6a2.7 2.7 0 1 0 0-5.3 2.7 2.7 0 0 0 0 5.3z" fill="none" id="path653"
            stroke="#000" stroke-width="1" />
        <path d="M281.7 190.6a2.7 2.7 0 1 0 0-5.3 2.7 2.7 0 0 0 0 5.3" fill="#fff" id="path654" />
        <path d="M281.7 190.6a2.7 2.7 0 1 0 0-5.3 2.7 2.7 0 0 0 0 5.3z" fill="none" id="path655"
            stroke="#000" stroke-width="1" />
        <path d="M277.2 192.4a2.7 2.7 0 1 0 0-5.3 2.7 2.7 0 0 0 0 5.3" fill="#fff" id="path656" />
        <path d="M277.2 192.4a2.7 2.7 0 1 0 0-5.3 2.7 2.7 0 0 0 0 5.3z" fill="none" id="path657"
            stroke="#000" stroke-width="1" />
        <path d="M273 196a2.7 2.7 0 1 0 0-5.3 2.7 2.7 0 0 0 0 5.3" fill="#fff" id="path658" />
        <path d="M273 196a2.7 2.7 0 1 0 0-5.3 2.7 2.7 0 0 0 0 5.3z" fill="none" id="path659"
            stroke="#000" stroke-width="1" />
        <path d="M296.2 194.4a2.7 2.7 0 1 0 0-5.3 2.7 2.7 0 0 0 0 5.3" fill="#fff" id="path660" />
        <path d="M296.2 194.4a2.7 2.7 0 1 0 0-5.3 2.7 2.7 0 0 0 0 5.3z" fill="none" id="path661"
            stroke="#000" stroke-width="1" />
        <path d="M296.2 199.5a2.7 2.7 0 1 0 0-5.4 2.7 2.7 0 0 0 0 5.4" fill="#fff" id="path662" />
        <path d="M296.2 199.5a2.7 2.7 0 1 0 0-5.4 2.7 2.7 0 0 0 0 5.4z" fill="none" id="path663"
            stroke="#000" stroke-width="1" />
        <path d="M296.2 204.9a2.7 2.7 0 1 0 0-5.4 2.7 2.7 0 0 0 0 5.4" fill="#fff" id="path664" />
        <path d="M296.2 204.9a2.7 2.7 0 1 0 0-5.4 2.7 2.7 0 0 0 0 5.4z" fill="none" id="path665"
            stroke="#000" stroke-width="1" />
        <path d="M305.4 190.2a2.7 2.7 0 1 0 0-5.4 2.7 2.7 0 0 0 0 5.4" fill="#fff" id="path666" />
        <path d="M305.4 190.2a2.7 2.7 0 1 0 0-5.4 2.7 2.7 0 0 0 0 5.4z" fill="none" id="path667"
            stroke="#000" stroke-width="1" />
        <path d="M309 189.4a2.7 2.7 0 1 0 0-5.3 2.7 2.7 0 0 0 0 5.3" fill="#fff" id="path668" />
        <path d="M309 189.4a2.7 2.7 0 1 0 0-5.3 2.7 2.7 0 0 0 0 5.3z" fill="none" id="path669"
            stroke="#000" stroke-width="1" />
        <path d="M313.2 190a2.7 2.7 0 1 0 0-5.3 2.7 2.7 0 0 0 0 5.4" fill="#fff" id="path670" />
        <path d="M313.2 190a2.7 2.7 0 1 0 0-5.3 2.7 2.7 0 0 0 0 5.4z" fill="none" id="path671"
            stroke="#000" stroke-width="1" />
        <path d="M323.5 201.4a2.7 2.7 0 1 0 0-5.3 2.7 2.7 0 0 0 0 5.3" fill="#fff" id="path672" />
        <path d="M323.5 201.4a2.7 2.7 0 1 0 0-5.3 2.7 2.7 0 0 0 0 5.3z" fill="none" id="path673"
            stroke="#000" stroke-width="1" />
        <path d="M317.3 192.5a2.7 2.7 0 1 0 0-5.4 2.7 2.7 0 0 0 0 5.4" fill="#fff" id="path674" />
        <path d="M317.3 192.5a2.7 2.7 0 1 0 0-5.4 2.7 2.7 0 0 0 0 5.4z" fill="none" id="path675"
            stroke="#000" stroke-width="1" />
        <path d="M321.1 196.1a2.7 2.7 0 1 0 0-5.3 2.7 2.7 0 0 0 0 5.3" fill="#fff" id="path676" />
        <path d="M321.1 196.1a2.7 2.7 0 1 0 0-5.3 2.7 2.7 0 0 0 0 5.3z" fill="none" id="path677"
            stroke="#000" stroke-width="1" />
        <path d="m296 236-7 3.6 6.3 4 7.5-3.8-6.8-3.8" fill="#fff" id="path678" />
        <path d="m296 236-7 3.6 6.3 4 7.5-3.8-6.8-3.8" fill="none" id="path679" stroke="#000"
            stroke-width=".5" />
        <path d="m280.6 236.8-10.5 1.6s-.2 5.7.3 7l10.9-1.4s.5-5.3-.7-7.2" fill="#fff"
            id="path680" />
        <path d="m280.6 236.8-10.5 1.6s-.2 5.7.3 7l10.9-1.4s.5-5.3-.7-7.2z" fill="none" id="path681"
            stroke="#000" stroke-width=".5" />
        <path d="M279.5 238.8s-6.4.6-8 1.2v3.8s4.3-.7 8.1-1l-.1-4" fill="#058e6e" fill-opacity=".9"
            id="path682" />
        <path d="M279.5 238.8s-6.4.6-8 1.2v3.8s4.3-.7 8.1-1l-.1-4" fill="none" id="path683"
            stroke="#000" stroke-width=".5" />
        <path d="m310.7 237 10.6 1.7s.1 5.7-.4 7l-10.8-1.4s-.5-5.3.6-7.2" fill="#fff"
            id="path684" />
        <path d="m310.7 237 10.6 1.7s.1 5.7-.4 7l-10.8-1.4s-.5-5.3.6-7.2z" fill="none" id="path685"
            stroke="#000" stroke-width=".5" />
        <path d="M312 239.1s6.3.6 7.9 1.2l-.1 3.8s-4.2-.7-8-1l.1-4" fill="#058e6e" fill-opacity=".9"
            id="path686" />
        <path d="M312 239.1s6.3.6 7.9 1.2l-.1 3.8s-4.2-.7-8-1l.1-4" fill="none" id="path687"
            stroke="#000" stroke-width=".5" />
        <path d="M254.2 241.8s37-13.7 84.2 1.2m-82.7 6.7s35.9-13.4 80 .6m-79.8-9 7.2 2.1-5 5.4"
            fill="none" id="path688" stroke="#000" stroke-width=".5" />
        <path d="m256 247.8 4.2-3.5-4.7-.9s.6.7.5 1.4v3" fill="red" id="path689" />
        <path d="m256 247.8 4.2-3.5-4.7-.9s.6.7.5 1.4v3z" fill="none" id="path690" stroke="#000"
            stroke-width=".5" />
        <path d="m337.6 242.7-7.7 1.4 5.2 6" fill="none" id="path691" stroke="#000"
            stroke-width=".5" />
        <path d="m335.3 248-2.9-3 4.2-.4s-1.2.7-1.2 1.4c0 .6.2 1.5 0 2" fill="red" id="path692" />
        <path d="m335.3 248-2.9-3 4.2-.4s-1.2.7-1.2 1.4c0 .6.2 1.5 0 2z" fill="none" id="path693"
            stroke="#000" stroke-width=".5" />
        <path
            d="M265.3 241.8c.6 0 1.2-.4 1.2-1 0-.4-.6-.9-1.2-.9-.7 0-1.2.5-1.2 1s.5 1 1.2 1zm20.6-2.3c.7 0 1.2-.4 1.2-1 0-.5-.5-.9-1.2-.9s-1.2.4-1.2 1c0 .5.5.9 1.2.9zm0 3.3c.7 0 1.2-.4 1.2-.9s-.5-1-1.2-1-1.2.5-1.2 1 .5 1 1.2 1zm20.3-3.1c.6 0 1.2-.5 1.2-1s-.6-1-1.2-1c-.7 0-1.2.5-1.2 1s.5 1 1.2 1zm20.1 3.7c.7 0 1.2-.5 1.2-1s-.5-1-1.2-1-1.2.5-1.2 1 .5 1 1.2 1zm-.3 2.6c.6 0 1.2-.4 1.2-1 0-.4-.6-.9-1.2-.9-.7 0-1.2.5-1.2 1s.5 1 1.2 1zm-19.8-3c.6 0 1.2-.4 1.2-1 0-.5-.6-.9-1.2-.9-.7 0-1.2.4-1.2 1 0 .5.5 1 1.2 1zm-40 3c.7 0 1.3-.4 1.3-1 0-.4-.6-.9-1.2-.9-.7 0-1.2.5-1.2 1s.5 1 1.2 1z"
            fill="none" id="path694" stroke="#000" stroke-width=".5" />
        <path
            d="M253.6 231s.1 7.2 4.8 6.2 4.2-6.9 4.5-7.2c.4-.3.9-.3.9-.3s.6 5.7 5 5c4.4-.7 4.2-7.7 3.7-8.9l1-.3s1.7 8.2 6.7 7c5-1.2 4.5-6.4 4.5-6.4h.4s1.1 5.6 5.2 5.2c4-.3 4.8-1.6 4.3-7.2l2.7-.5s-1 8 3.9 8c4.8-.3 5-4.1 5.3-4.8h.8s.2 5.7 4.3 5.7c4 0 4.8-4.8 4.8-6.7l4 .2s-4.2 7.5 1.9 8.5c6 1 6.2-4.8 6.2-4.8h1.2s-.2 7.5 3.1 7.7c3.4.1 5.4-1 5.7-6.6l1.9.7s-1.6 9-7.9 7.4c-3.3-.9-4.4-4.7-4.2-5.7 0 0-2.3 4.2-6.9 2.8-4.5-1.3-4-4.5-4-5.5 0 0-2.7 5-6.5 3.9-3.4-1-4.7-2.2-4.7-4.6 0 0-1.7 3.9-5 3.7-3.4-.1-5-2.2-5.2-4 0 0-.7 3.6-5.2 3.9-3 .1-4.7-1.4-5.4-3.4 0 0-.9 3.6-5.2 4.2-2.7.3-5.4-1.2-6-3.7 0 0-.7 4.9-5 5.5-4.4.7-5.4-2.3-5.4-2.3s-.9 3.8-4.4 4.7c-3.5.8-5.8-.7-6.7-4.2-.8-3.5-.5-5-.5-5l1.4 1.8"
            fill="#fc0" fill-opacity="1" id="path695" />
        <path
            d="M253.6 231s.1 7.2 4.8 6.2 4.2-6.9 4.5-7.2c.4-.3.9-.3.9-.3s.6 5.7 5 5c4.4-.7 4.2-7.7 3.7-8.9l1-.3s1.7 8.2 6.7 7c5-1.2 4.5-6.4 4.5-6.4h.4s1.1 5.6 5.2 5.2c4-.3 4.8-1.6 4.3-7.2l2.7-.5s-1 8 3.9 8c4.8-.3 5-4.1 5.3-4.8h.8s.2 5.7 4.3 5.7c4 0 4.8-4.8 4.8-6.7l4 .2s-4.2 7.5 1.9 8.5c6 1 6.2-4.8 6.2-4.8h1.2s-.2 7.5 3.1 7.7c3.4.1 5.4-1 5.7-6.6l1.9.7s-1.6 9-7.9 7.4c-3.3-.9-4.4-4.7-4.2-5.7 0 0-2.3 4.2-6.9 2.8-4.5-1.3-4-4.5-4-5.5 0 0-2.7 5-6.5 3.9-3.4-1-4.7-2.2-4.7-4.6 0 0-1.7 3.9-5 3.7-3.4-.1-5-2.2-5.2-4 0 0-.7 3.6-5.2 3.9-3 .1-4.7-1.4-5.4-3.4 0 0-.9 3.6-5.2 4.2-2.7.3-5.4-1.2-6-3.7 0 0-.7 4.9-5 5.5-4.4.7-5.4-2.3-5.4-2.3s-.9 3.8-4.4 4.7c-3.5.8-5.8-.7-6.7-4.2-.8-3.5-.5-5-.5-5l1.4 1.8z"
            fill="#bcac0b" fill-opacity="1" id="path696" stroke="#000" stroke-width=".7" />
        <path d="M263.3 231.3a1.7 1.7 0 1 0 0-3.3 1.7 1.7 0 0 0 0 3.3" fill="#fc0" fill-opacity="1"
            id="path697" />
        <path d="M263.3 231.3a1.7 1.7 0 1 0 0-3.3 1.7 1.7 0 0 0 0 3.3z" fill="#bcac0b"
            fill-opacity="1" id="path698" stroke="#000" stroke-width=".7" />
        <path d="M285.1 227.8a1.7 1.7 0 1 0 0-3.3 1.7 1.7 0 0 0 0 3.3" fill="#fc0" fill-opacity="1"
            id="path699" />
        <path d="M285.1 227.8a1.7 1.7 0 1 0 0-3.3 1.7 1.7 0 0 0 0 3.3z" fill="#bcac0b"
            fill-opacity="1" id="path700" stroke="#000" stroke-width=".7" />
        <path d="M307.3 228.5a1.7 1.7 0 1 0 0-3.3 1.7 1.7 0 0 0 0 3.3" fill="#fc0" fill-opacity="1"
            id="path701" />
        <path d="M307.3 228.5a1.7 1.7 0 1 0 0-3.3 1.7 1.7 0 0 0 0 3.3z" fill="#bcac0b"
            fill-opacity="1" id="path702" stroke="#000" stroke-width=".7" />
        <path d="M329.2 232a1.7 1.7 0 1 0 0-3.3 1.7 1.7 0 0 0 0 3.3" fill="#fc0" fill-opacity="1"
            id="path703" />
        <path d="M329.2 232a1.7 1.7 0 1 0 0-3.3 1.7 1.7 0 0 0 0 3.3z" fill="#bcac0b"
            fill-opacity="1" id="path704" stroke="#000" stroke-width=".7" />
        <path
            d="M295.2 226h-1.5c-.4 1.5-3.6 2.4-3.6 2.4-.4-1.2.5-2.9.5-2.9-3.7-1-3.7-2.2-3.7-2.2.5-1.3 4-1.5 4-1.5-1-1.1-.8-3-.8-3 2.3.2 4.2 2.5 4.2 2.5s-2.3-1.2-2-5.2c0 0 1.2 0 2 .8 0 0 0-4.4 1.8-4.9h.2c1.8.5 1.8 4.9 1.8 4.9.8-.9 2-.8 2-.8.3 4-2 5.2-2 5.2s1.9-2.3 4.2-2.4c0 0 .1 1.8-.7 3 0 0 3.4.1 4 1.4 0 0 0 1.3-3.8 2.2 0 0 .8 1.7.5 3 0 0-3.3-1-3.6-2.5h-3.5"
            fill="#fc0" fill-opacity="1" id="path705" />
        <path
            d="M295.2 226h-1.5c-.4 1.5-3.6 2.4-3.6 2.4-.4-1.2.5-2.9.5-2.9-3.7-1-3.7-2.2-3.7-2.2.5-1.3 4-1.5 4-1.5-1-1.1-.8-3-.8-3 2.3.2 4.2 2.5 4.2 2.5s-2.3-1.2-2-5.2c0 0 1.2 0 2 .8 0 0 0-4.4 1.8-4.9h.2c1.8.5 1.8 4.9 1.8 4.9.8-.9 2-.8 2-.8.3 4-2 5.2-2 5.2s1.9-2.3 4.2-2.4c0 0 .1 1.8-.7 3 0 0 3.4.1 4 1.4 0 0 0 1.3-3.8 2.2 0 0 .8 1.7.5 3 0 0-3.3-1-3.6-2.5h-3.5z"
            fill="#bcac0b" fill-opacity="1" id="path706" stroke="#000" stroke-width=".7" />
        <path d="M296 226.8a3 3 0 1 0 0-6 3 3 0 0 0 0 6" fill="#fff" id="path707" />
        <path d="M296 226.8a3 3 0 1 0 0-6 3 3 0 0 0 0 6z" fill="none" id="path708" stroke="#000"
            stroke-width=".4" />
        <path d="M296 225.5a1.7 1.7 0 1 0 0-3.4 1.7 1.7 0 0 0 0 3.4" fill="#fff" id="path709" />
        <path d="M296 225.5a1.7 1.7 0 1 0 0-3.4 1.7 1.7 0 0 0 0 3.4z" fill="none" id="path710"
            stroke="#000" stroke-width=".3" />
        <path
            d="m319.1 228 1.5.3c0 1.5 3 3.1 3 3.1.6-1 .1-2.9.1-2.9 3.9-.1 4.1-1.4 4.1-1.4-.2-1.4-3.5-2.3-3.5-2.3 1-.9 1.3-2.7 1.3-2.7-2.3-.4-4.6 1.4-4.6 1.4s2.5-.6 3-4.6c0 0-1.1-.3-2 .3 0 0 .9-4.2-.8-5l-.2-.1c-1.9 0-2.8 4.3-2.8 4.3-.6-1-1.8-1.1-1.8-1.1-1.1 3.8.9 5.4.9 5.4s-1.4-2.6-3.6-3.2c0 0-.5 1.8 0 3 0 0-3.3-.5-4.1.6 0 0-.3 1.3 3.1 3 0 0-1.1 1.5-1 2.8 0 0 3.3-.3 4-1.7l1.5.3 2 .4"
            fill="#fc0" fill-opacity="1" id="path711" />
        <path
            d="m319.1 228 1.5.3c0 1.5 3 3.1 3 3.1.6-1 .1-2.9.1-2.9 3.9-.1 4.1-1.4 4.1-1.4-.2-1.4-3.5-2.3-3.5-2.3 1-.9 1.3-2.7 1.3-2.7-2.3-.4-4.6 1.4-4.6 1.4s2.5-.6 3-4.6c0 0-1.1-.3-2 .3 0 0 .9-4.2-.8-5l-.2-.1c-1.9 0-2.8 4.3-2.8 4.3-.6-1-1.8-1.1-1.8-1.1-1.1 3.8.9 5.4.9 5.4s-1.4-2.6-3.6-3.2c0 0-.5 1.8 0 3 0 0-3.3-.5-4.1.6 0 0-.3 1.3 3.1 3 0 0-1.1 1.5-1 2.8 0 0 3.3-.3 4-1.7l1.5.3 2 .4"
            fill="#bcac0b" fill-opacity="1" id="path712" stroke="#000" stroke-width=".7" />
        <path d="M318 228.6a3 3 0 1 1 1.4-6 3 3 0 0 1-1.3 6" fill="#fff" id="path713" />
        <path d="M318 228.6a3 3 0 1 1 1.4-6 3 3 0 0 1-1.3 6z" fill="none" id="path714" stroke="#000"
            stroke-width=".4" />
        <path d="M318.4 227.3a1.7 1.7 0 1 1 .7-3.3 1.7 1.7 0 0 1-.7 3.3" fill="#fff" id="path715" />
        <path d="M318.4 227.3a1.7 1.7 0 1 1 .7-3.3 1.7 1.7 0 0 1-.7 3.3z" fill="none" id="path716"
            stroke="#000" stroke-width=".3" />
        <path
            d="m272.3 227.6-1.5.2c-.2 1.6-3.3 3-3.3 3-.5-1.2 0-3 0-3-3.7-.4-3.9-1.7-3.9-1.7.4-1.3 3.8-2 3.8-2-1-1-1.1-2.8-1.1-2.8 2.2-.2 4.4 1.8 4.4 1.8s-2.4-.8-2.7-4.8c0 0 1.3-.3 2.1.4 0 0-.5-4.3 1.2-5h.2c1.9.2 2.4 4.5 2.4 4.5.7-.9 2-1 2-1 .7 4-1.4 5.4-1.4 5.4s1.6-2.5 3.8-3c0 0 .4 1.9-.3 3.1 0 0 3.4-.3 4.1 1 0 0 .2 1.2-3.4 2.6 0 0 1 1.6.9 2.8 0 0-3.3-.5-4-2l-1.4.3-2 .2"
            fill="#fc0" fill-opacity="1" id="path717" />
        <path
            d="m272.3 227.6-1.5.2c-.2 1.6-3.3 3-3.3 3-.5-1.2 0-3 0-3-3.7-.4-3.9-1.7-3.9-1.7.4-1.3 3.8-2 3.8-2-1-1-1.1-2.8-1.1-2.8 2.2-.2 4.4 1.8 4.4 1.8s-2.4-.8-2.7-4.8c0 0 1.3-.3 2.1.4 0 0-.5-4.3 1.2-5h.2c1.9.2 2.4 4.5 2.4 4.5.7-.9 2-1 2-1 .7 4-1.4 5.4-1.4 5.4s1.6-2.5 3.8-3c0 0 .4 1.9-.3 3.1 0 0 3.4-.3 4.1 1 0 0 .2 1.2-3.4 2.6 0 0 1 1.6.9 2.8 0 0-3.3-.5-4-2l-1.4.3-2 .2"
            fill="#bcac0b" fill-opacity="1" id="path718" stroke="#000" stroke-width=".7" />
        <path d="M273.2 228.4a3 3 0 1 0-.8-6 3 3 0 0 0 .8 6" fill="#fff" id="path719" />
        <path d="M273.2 228.4a3 3 0 1 0-.8-6 3 3 0 0 0 .8 6z" fill="none" id="path720" stroke="#000"
            stroke-width=".4" />
        <path d="M273 227a1.7 1.7 0 1 0-.4-3.3 1.7 1.7 0 0 0 .4 3.3" fill="#fff" id="path721" />
        <path d="M273 227a1.7 1.7 0 1 0-.4-3.3 1.7 1.7 0 0 0 .4 3.3z" fill="none" id="path722"
            stroke="#000" stroke-width=".3" />
        <path
            d="M340.2 234.1s-.8-2-2.5-1.3-1.5 1-3 1c0 0-.6-1.9.2-2.7 0 0-2.4-.9-3-3 0 0 1.3-1.5 4.4-.9 0 0-.1-1.5.3-2.2 0 0 3.3 1 3.3 2.9 0 0-1-3.6.8-6.2 0 0 1.5.6 1.4 2.3 0 0 .7-3.4 5.2-2.5 0 0-2.4 2.2-2.5 3.2-.2 1-2.2 2.7-2.3 3.3 0 .5-.2 1.5-.8 2.1-.6.6-.7 1.6-.7 2 0 .2 0 1.6-.8 2"
            fill="#fc0" fill-opacity="1" id="path723" />
        <path
            d="M340.2 234.1s-.8-2-2.5-1.3-1.5 1-3 1c0 0-.6-1.9.2-2.7 0 0-2.4-.9-3-3 0 0 1.3-1.5 4.4-.9 0 0-.1-1.5.3-2.2 0 0 3.3 1 3.3 2.9 0 0-1-3.6.8-6.2 0 0 1.5.6 1.4 2.3 0 0 .7-3.4 5.2-2.5 0 0-2.4 2.2-2.5 3.2-.2 1-2.2 2.7-2.3 3.3 0 .5-.2 1.5-.8 2.1-.6.6-.7 1.6-.7 2 0 .2 0 1.6-.8 2z"
            fill="#bcac0b" fill-opacity="1" id="path724" stroke="#000" stroke-width=".7" />
        <path
            d="M337.7 230.1a3 3 0 0 1 4.8-1.8c0 .5-.3 1.3-.8 1.8-.6.6-.7 1.6-.7 2a3 3 0 0 1-.4 1.6h-.5a3 3 0 0 1-2.4-3.6"
            fill="#fff" id="path725" />
        <path
            d="M337.7 230.1a3 3 0 0 1 4.8-1.8c0 .5-.3 1.3-.8 1.8-.6.6-.7 1.6-.7 2a3 3 0 0 1-.4 1.6h-.5a3 3 0 0 1-2.4-3.6z"
            fill="none" id="path726" stroke="#000" stroke-width=".4" />
        <path d="M339 230.4a1.7 1.7 0 0 1 3-.7l-.3.4c-.6.6-.7 1.6-.7 2v.2h-.6c-1-.1-1.5-1-1.3-2"
            fill="#fff" id="path727" />
        <path d="M339 230.4a1.7 1.7 0 0 1 3-.7l-.3.4c-.6.6-.7 1.6-.7 2v.2h-.6c-1-.1-1.5-1-1.3-2z"
            fill="none" id="path728" stroke="#000" stroke-width=".3" />
        <path
            d="M252.2 233.3s.8-2 2.5-1.2c1.6.9 1.4 1.1 3 1.1 0 0 .6-1.8 0-2.6 0 0 2.4-.7 3-2.8 0 0-1.2-1.6-4.3-1.2 0 0 .2-1.5-.2-2.2 0 0-3.3.8-3.4 2.6 0 0 1.2-3.5-.4-6.2 0 0-1.6.6-1.6 2.2 0 0-.5-3.4-5-2.7 0 0 2.3 2.3 2.3 3.3s2 2.8 2 3.4c0 .5.2 1.6.8 2.2.6.6.6 1.6.5 2 0 .2 0 1.6.8 2"
            fill="#fc0" fill-opacity="1" id="path729" />
        <path
            d="M252.2 233.3s.8-2 2.5-1.2c1.6.9 1.4 1.1 3 1.1 0 0 .6-1.8 0-2.6 0 0 2.4-.7 3-2.8 0 0-1.2-1.6-4.3-1.2 0 0 .2-1.5-.2-2.2 0 0-3.3.8-3.4 2.6 0 0 1.2-3.5-.4-6.2 0 0-1.6.6-1.6 2.2 0 0-.5-3.4-5-2.7 0 0 2.3 2.3 2.3 3.3s2 2.8 2 3.4c0 .5.2 1.6.8 2.2.6.6.6 1.6.5 2 0 .2 0 1.6.8 2z"
            fill="#bcac0b" fill-opacity="1" id="path730" stroke="#000" stroke-width=".7" />
        <path
            d="M254.8 229.4a3 3 0 0 0-4.6-2c0 .5.2 1.3.7 1.8.6.6.6 1.6.5 2 0 .2 0 1 .4 1.7h.4a3 3 0 0 0 2.6-3.5"
            fill="#fff" id="path731" />
        <path
            d="M254.8 229.4a3 3 0 0 0-4.6-2c0 .5.2 1.3.7 1.8.6.6.6 1.6.5 2 0 .2 0 1 .4 1.7h.4a3 3 0 0 0 2.6-3.5z"
            fill="none" id="path732" stroke="#000" stroke-width=".4" />
        <path d="M253.5 229.6a1.7 1.7 0 0 0-3-.9l.4.5c.6.6.6 1.6.5 2v.2h.7c.9 0 1.5-.9 1.4-1.8"
            fill="#fff" id="path733" />
        <path d="M253.5 229.6a1.7 1.7 0 0 0-3-.9l.4.5c.6.6.6 1.6.5 2v.2h.7c.9 0 1.5-.9 1.4-1.8z"
            fill="none" id="path734" stroke="#000" stroke-width=".3" />
        <path d="M257.2 251.6s33.8-13.2 76.4.3" fill="none" id="path735" stroke="#000"
            stroke-width="1.5" />
        <path d="M338.4 241.1c-47.1-15-84.7-.8-84.7-.8" fill="none" id="path736" stroke="#000"
            stroke-width=".5" />
        <path d="m296 237.8-3.8 1.9 3.4 2.1 4-2-3.6-2" fill="red" id="path737" />
        <path d="m296 237.8-3.8 1.9 3.4 2.1 4-2-3.6-2" fill="none" id="path738" stroke="#000"
            stroke-width=".5" />
    </g>
</svg>
