<svg xmlns:xlink="http://www.w3.org/1999/xlink" id="flag-icons-nz" viewBox="0 0 640 480"
    xmlns="http://www.w3.org/2000/svg">
    <defs id="defs30">
        <clipPath id="nz-c">
            <path d="M0 0h600v300H0z" id="path10" />
        </clipPath>
        <clipPath id="nz-d">
            <path d="m0 0 300 150H0zm300 0h300L300 150zm0 150h300v150zm0 0v150H0z" id="path13" />
        </clipPath>
        <g id="b">
            <g id="a">
                <path d="M0 0v.5L1 0z" id="path16" transform="translate(0 -.3)" />
                <path d="M0 0v-.5L1 0z" id="path18" transform="rotate(-36 .5 -.2)" />
            </g>
            <use id="use21" transform="scale(-1 1)" xlink:href="#a" />
            <use id="use23" transform="rotate(72 0 0)" xlink:href="#a" />
            <use id="use25" transform="rotate(-72 0 0)" xlink:href="#a" />
            <use id="use27" transform="scale(-1 1) rotate(72)" xlink:href="#a" />
        </g>
    </defs>
    <path d="M0 0h640v480H0z" fill="#00247d" fill-rule="evenodd" id="path32" />
    <g id="g38" transform="translate(-111 36.1) scale(.66825)">
        <use fill="#fff" height="100%" id="use34" transform="matrix(45.4 0 0 45.4 900 120)"
            width="100%" x="0" y="0" xlink:href="#b" />
        <use fill="#cc142b" height="100%" id="use36" transform="matrix(30 0 0 30 900 120)"
            width="100%" x="0" y="0" xlink:href="#b" />
    </g>
    <g id="g44" transform="rotate(82 525.2 114.6) scale(.66825)">
        <use fill="#fff" height="100%" id="use40" transform="rotate(-82 519 -457.7) scale(40.4)"
            width="100%" x="0" y="0" xlink:href="#b" />
        <use fill="#cc142b" height="100%" id="use42" transform="rotate(-82 519 -457.7) scale(25)"
            width="100%" x="0" y="0" xlink:href="#b" />
    </g>
    <g id="g50" transform="rotate(82 525.2 114.6) scale(.66825)">
        <use fill="#fff" height="100%" id="use46" transform="rotate(-82 668.6 -327.7) scale(45.4)"
            width="100%" x="0" y="0" xlink:href="#b" />
        <use fill="#cc142b" height="100%" id="use48" transform="rotate(-82 668.6 -327.7) scale(30)"
            width="100%" x="0" y="0" xlink:href="#b" />
    </g>
    <g id="g56" transform="translate(-111 36.1) scale(.66825)">
        <use fill="#fff" height="100%" id="use52" transform="matrix(50.4 0 0 50.4 900 480)"
            width="100%" x="0" y="0" xlink:href="#b" />
        <use fill="#cc142b" height="100%" id="use54" transform="matrix(35 0 0 35 900 480)"
            width="100%" x="0" y="0" xlink:href="#b" />
    </g>
    <path d="M0 0h320v240H0z" fill="#012169" id="path1592" stroke-width=".5" />
    <path
        d="m37.5 0 122 90.5L281 0h39v31l-120 89.5 120 89V240h-40l-120-89.5L40.5 240H0v-30l119.5-89L0 32V0z"
        fill="#fff" id="path1594" stroke-width=".5" />
    <path
        d="M212 140.5 320 220v20l-135.5-99.5zm-92 10 3 17.5-96 72H0zM320 0v1.5l-124.5 94 1-22L295 0zM0 0l119.5 88h-30L0 21z"
        fill="#c8102e" id="path1596" stroke-width=".5" />
    <path d="M120.5 0v240h80V0zM0 80v80h320V80z" fill="#fff" id="path1598" stroke-width=".5" />
    <path d="M0 96.5v48h320v-48zM136.5 0v240h48V0z" fill="#c8102e" id="path1600"
        stroke-width=".5" />
</svg>
